<?xml version="1.0" encoding="utf-8"?>
<svg version="1.1" xmlns:xlink="http://www.w3.org/1999/xlink" width="9px" height="16px" xmlns="http://www.w3.org/2000/svg">
  <defs>
    <pattern id="BGPattern" patternUnits="userSpaceOnUse" alignment="0 0" imageRepeat="None" />
    <mask fill="white" id="Clip115">
      <path d="M 6.5806640625 1.05078125  C 6.771484375 0.8601562500000002  7.021289062499999 0.7648437499999998  7.271289062499999 0.7648437499999998  C 7.521289062499999 0.7648437499999998  7.77109375 0.8601562500000002  7.9619140625 1.05078125  C 8.343359375 1.4322265625  8.343359375 2.0503906250000004  7.9619140625 2.431835937499999  L 2.4230468750000007 7.970507812499999  L 7.961718749999999 13.509179687499998  C 8.343164062499998 13.890624999999998  8.343164062499998 14.508789062499996  7.961718749999999 14.890234374999999  C 7.580273437499999 15.271679687499997  6.9619140624999964 15.271484375  6.580664062499999 14.890234374999999  L 0.3515625 8.660937500000001  C -0.029882812500000355 8.2794921875  -0.029882812500000355 7.661328125000001  0.3515625 7.2798828125  L 6.5806640625 1.05078125  Z " fill-rule="evenodd" />
    </mask>
  </defs>
  <g transform="matrix(1 0 0 1 -9 -59 )">
    <path d="M 6.5806640625 1.05078125  C 6.771484375 0.8601562500000002  7.021289062499999 0.7648437499999998  7.271289062499999 0.7648437499999998  C 7.521289062499999 0.7648437499999998  7.77109375 0.8601562500000002  7.9619140625 1.05078125  C 8.343359375 1.4322265625  8.343359375 2.0503906250000004  7.9619140625 2.431835937499999  L 2.4230468750000007 7.970507812499999  L 7.961718749999999 13.509179687499998  C 8.343164062499998 13.890624999999998  8.343164062499998 14.508789062499996  7.961718749999999 14.890234374999999  C 7.580273437499999 15.271679687499997  6.9619140624999964 15.271484375  6.580664062499999 14.890234374999999  L 0.3515625 8.660937500000001  C -0.029882812500000355 8.2794921875  -0.029882812500000355 7.661328125000001  0.3515625 7.2798828125  L 6.5806640625 1.05078125  Z " fill-rule="nonzero" fill="rgba(85, 85, 85, 1)" stroke="none" transform="matrix(1 0 0 1 9 59 )" class="fill" />
    <path d="M 6.5806640625 1.05078125  C 6.771484375 0.8601562500000002  7.021289062499999 0.7648437499999998  7.271289062499999 0.7648437499999998  C 7.521289062499999 0.7648437499999998  7.77109375 0.8601562500000002  7.9619140625 1.05078125  C 8.343359375 1.4322265625  8.343359375 2.0503906250000004  7.9619140625 2.431835937499999  L 2.4230468750000007 7.970507812499999  L 7.961718749999999 13.509179687499998  C 8.343164062499998 13.890624999999998  8.343164062499998 14.508789062499996  7.961718749999999 14.890234374999999  C 7.580273437499999 15.271679687499997  6.9619140624999964 15.271484375  6.580664062499999 14.890234374999999  L 0.3515625 8.660937500000001  C -0.029882812500000355 8.2794921875  -0.029882812500000355 7.661328125000001  0.3515625 7.2798828125  L 6.5806640625 1.05078125  Z " stroke-width="0" stroke-dasharray="0" stroke="rgba(255, 255, 255, 0)" fill="none" transform="matrix(1 0 0 1 9 59 )" class="stroke" mask="url(#Clip115)" />
  </g>
</svg>