<?xml version="1.0" encoding="utf-8"?>
<svg version="1.1" xmlns:xlink="http://www.w3.org/1999/xlink" width="17px" height="25px" xmlns="http://www.w3.org/2000/svg">
  <defs>
    <pattern id="BGPattern" patternUnits="userSpaceOnUse" alignment="0 0" imageRepeat="None" />
    <mask fill="white" id="Clip137">
      <path d="M 7.852380962499999 23.61111111111111  L 7.8523809625 21.118518518518517  C 3.719276210714286 20.819135792824074  0.41965714285714323 17.674074074074074  0.10556189464285762 13.734567910879628  L 1.4053333232142862 13.734567910879628  C 1.7323809625 17.19567902199074  4.783961894642858 19.90740740740741  8.5 19.90740740740741  C 12.216038105357143 19.90740740740741  15.267619037499998 17.19567902199074  15.594666676785716 13.734567910879628  L 16.894438105357146 13.734567910879628  C 16.58034285714286 17.674074074074074  13.28072381964286 20.819135821759257  9.147619037500002 21.118518518518517  L 9.147619037500002 23.61111111111111  L 14.32857142857143 23.61111111111111  L 14.32857142857143 24.84567902199074  L 2.6714285714285713 24.84567902199074  L 2.6714285714285713 23.61111111111111  L 7.852380962499999 23.61111111111111  Z M 2.6714285714285713 5.709876533564814  C 2.6714285714285713 2.641627923393739  5.280968886700515 0.15432097800925873  8.5 0.15432097800925873  C 11.719031113299481 0.15432097800925873  14.32857142857143 2.64162792339374  14.32857142857143 5.709876533564814  L 14.32857142857143 13.117283940972225  C 14.32857142857143 16.185532551143297  11.719031113299481 18.67283949652778  8.5 18.67283949652778  C 5.280968886700515 18.67283949652778  2.6714285714285713 16.185532551143297  2.6714285714285713 13.117283940972225  L 2.6714285714285713 5.709876533564814  Z " fill-rule="evenodd" />
    </mask>
  </defs>
  <g transform="matrix(1 0 0 1 -1694 -995 )">
    <path d="M 7.852380962499999 23.61111111111111  L 7.8523809625 21.118518518518517  C 3.719276210714286 20.819135792824074  0.41965714285714323 17.674074074074074  0.10556189464285762 13.734567910879628  L 1.4053333232142862 13.734567910879628  C 1.7323809625 17.19567902199074  4.783961894642858 19.90740740740741  8.5 19.90740740740741  C 12.216038105357143 19.90740740740741  15.267619037499998 17.19567902199074  15.594666676785716 13.734567910879628  L 16.894438105357146 13.734567910879628  C 16.58034285714286 17.674074074074074  13.28072381964286 20.819135821759257  9.147619037500002 21.118518518518517  L 9.147619037500002 23.61111111111111  L 14.32857142857143 23.61111111111111  L 14.32857142857143 24.84567902199074  L 2.6714285714285713 24.84567902199074  L 2.6714285714285713 23.61111111111111  L 7.852380962499999 23.61111111111111  Z M 2.6714285714285713 5.709876533564814  C 2.6714285714285713 2.641627923393739  5.280968886700515 0.15432097800925873  8.5 0.15432097800925873  C 11.719031113299481 0.15432097800925873  14.32857142857143 2.64162792339374  14.32857142857143 5.709876533564814  L 14.32857142857143 13.117283940972225  C 14.32857142857143 16.185532551143297  11.719031113299481 18.67283949652778  8.5 18.67283949652778  C 5.280968886700515 18.67283949652778  2.6714285714285713 16.185532551143297  2.6714285714285713 13.117283940972225  L 2.6714285714285713 5.709876533564814  Z " fill-rule="nonzero" fill="rgba(127, 127, 127, 1)" stroke="none" transform="matrix(1 0 0 1 1694 995 )" class="fill" />
    <path d="M 7.852380962499999 23.61111111111111  L 7.8523809625 21.118518518518517  C 3.719276210714286 20.819135792824074  0.41965714285714323 17.674074074074074  0.10556189464285762 13.734567910879628  L 1.4053333232142862 13.734567910879628  C 1.7323809625 17.19567902199074  4.783961894642858 19.90740740740741  8.5 19.90740740740741  C 12.216038105357143 19.90740740740741  15.267619037499998 17.19567902199074  15.594666676785716 13.734567910879628  L 16.894438105357146 13.734567910879628  C 16.58034285714286 17.674074074074074  13.28072381964286 20.819135821759257  9.147619037500002 21.118518518518517  L 9.147619037500002 23.61111111111111  L 14.32857142857143 23.61111111111111  L 14.32857142857143 24.84567902199074  L 2.6714285714285713 24.84567902199074  L 2.6714285714285713 23.61111111111111  L 7.852380962499999 23.61111111111111  Z " stroke-width="0" stroke-dasharray="0" stroke="rgba(255, 255, 255, 0)" fill="none" transform="matrix(1 0 0 1 1694 995 )" class="stroke" mask="url(#Clip137)" />
    <path d="M 2.6714285714285713 5.709876533564814  C 2.6714285714285713 2.641627923393739  5.280968886700515 0.15432097800925873  8.5 0.15432097800925873  C 11.719031113299481 0.15432097800925873  14.32857142857143 2.64162792339374  14.32857142857143 5.709876533564814  L 14.32857142857143 13.117283940972225  C 14.32857142857143 16.185532551143297  11.719031113299481 18.67283949652778  8.5 18.67283949652778  C 5.280968886700515 18.67283949652778  2.6714285714285713 16.185532551143297  2.6714285714285713 13.117283940972225  L 2.6714285714285713 5.709876533564814  Z " stroke-width="0" stroke-dasharray="0" stroke="rgba(255, 255, 255, 0)" fill="none" transform="matrix(1 0 0 1 1694 995 )" class="stroke" mask="url(#Clip137)" />
  </g>
</svg>