<?xml version="1.0" encoding="utf-8"?>
<svg version="1.1" xmlns:xlink="http://www.w3.org/1999/xlink" width="27px" height="29px" xmlns="http://www.w3.org/2000/svg">
  <defs>
    <pattern id="BGPattern" patternUnits="userSpaceOnUse" alignment="0 0" imageRepeat="None" />
    <mask fill="white" id="Clip142">
      <path d="M 21.66394921875 11.092260742187502  C 21.66394921875 10.44719921875  21.14201953125 9.92526953125  20.496958007812502 10  L 6.493177734375001 10  C 5.8481162109375 9.92526953125  5.326186523437499 10.4471611328125  5.326186523437499 11.092260742187502  C 5.326186523437499 11.737360351562504  5.8481162109375 12.259251953125002  6.493177734375001 12.259251953125002  L 20.496958007812502 12.259251953125002  C 21.14201953125 12.259251953125002  21.66394921875 11.737322265625  21.66394921875 11.092260742187502  Z M 20.496958007812502 5.257190429687501  L 6.493177734375001 5.257190429687501  C 5.8481162109375 5.257190429687501  5.326186523437499 5.779120117187501  5.326186523437499 6.424181640625001  C 5.326186523437499 7.069243164062501  5.8481162109375 7.5911728515625025  6.493177734375001 8  L 20.496958007812502 8  C 20.497262695312504 7.5911728515625025  20.4974150390625 7.5911728515625025  20.4977197265625 7.5911728515625025  C 21.1418291015625 7.5911728515625025  21.66394921875 7.069014648437502  21.66394921875 6.424943359375003  C 21.66394921875 5.779462890625004  21.1416767578125 5.257228515625004  20.497529296875 5.257228515625004  Z M 26.331076171874997 19.100971679687504  L 26 19.10733203125  L 26 2.923208007812499  C 26.331837890625003 1.634341796874999  25.2868740234375 0.5892255859374993  23.99785546875 1  L 2.9920136718749983 1  C 1.7031474609374986 0.5892255859374993  0.6580312499999987 1.6343798828124996  1 2.923208007812499  L 1 26.262994140624997  C 0.6580312499999987 27.5520126953125  1.7031855468749988 28.596976562499997  2.9920136718749983 28.596976562499997  L 16.757871093749998 28.596976562499997  C 16.828482421875 28.6122490234375  16.909681640625 28.620894531250002  16.992861328125 28.620894531250002  C 17.314992187499996 28.620894531250002  17.606578125 28.4902216796875  17.8175361328125 28.278958984375002  L 26.001251953125 20.095243164062502  C 26.2125908203125 19.884437500000004  26.3433779296875 19.5928515625  26.3433779296875 19.2707587890625  C 26.3433779296875 19.2130966796875  26.339188476562498 19.156424804687504  26.331076171874997 19.100971679687504  Z M 22.3683486328125 20.427961914062497  L 18.163013671875 24.633296875  L 18.163013671875 20.427961914062497  L 22.3683486328125 20.427961914062497  Z M 24 18.094017578124998  L 23.997893554687497 18.094017578124998  L 16.995984374999995 18.094017578124998  C 16.3512275390625 18.094017578124998  15.828993164062497 18.6162900390625  15.828993164062497 19.2604375  L 15.829183593749999 19.2672548828125  L 15.828993164062497 19.273462890625  L 15.828993164062497 26  L 4.1591953125 26  C 4.158966796874999 26.262765625000004  4.158890625 26.262765625000004  4.158624023437499 26.262765625000004  C 3.514476562499999 26.262765625000004  2.9922041015625 25.740493164062503  2.9922041015625 25.096345703125003  C 2.9922041015625 25.096079101562506  2.9922041015625 25.096002929687504  3 25.095698242187503  L 3 4.0902373046875  C 2.9922041015625 4.090008789062502  2.9922041015625 4.0899326171875  2.9922041015625 4.089666015625001  C 2.9922041015625 3.4454804687500022  3.514476562499999 2.9232460937500013  4.158624023437499 2.9232460937500013  C 4.158890625 2.9232460937500013  4.158966796874999 2.9232460937500013  4.159271484374999 3  L 22.830978515625002 3  C 22.8312451171875 2.9232460937500013  22.831435546875 2.9232460937500013  22.831740234375 2.9232460937500013  C 23.475849609375004 2.9232460937500013  23.9980078125 3.445404296875001  23.9980078125 4.089513671875  C 23.9980078125 4.089780273437501  23.9980078125 4.090008789062502  24 4.090275390625001  L 24 18.094017578124998  Z " fill-rule="evenodd" />
    </mask>
  </defs>
  <g transform="matrix(1 0 0 1 -27 -943 )">
    <path d="M 21.66394921875 11.092260742187502  C 21.66394921875 10.44719921875  21.14201953125 9.92526953125  20.496958007812502 10  L 6.493177734375001 10  C 5.8481162109375 9.92526953125  5.326186523437499 10.4471611328125  5.326186523437499 11.092260742187502  C 5.326186523437499 11.737360351562504  5.8481162109375 12.259251953125002  6.493177734375001 12.259251953125002  L 20.496958007812502 12.259251953125002  C 21.14201953125 12.259251953125002  21.66394921875 11.737322265625  21.66394921875 11.092260742187502  Z M 20.496958007812502 5.257190429687501  L 6.493177734375001 5.257190429687501  C 5.8481162109375 5.257190429687501  5.326186523437499 5.779120117187501  5.326186523437499 6.424181640625001  C 5.326186523437499 7.069243164062501  5.8481162109375 7.5911728515625025  6.493177734375001 8  L 20.496958007812502 8  C 20.497262695312504 7.5911728515625025  20.4974150390625 7.5911728515625025  20.4977197265625 7.5911728515625025  C 21.1418291015625 7.5911728515625025  21.66394921875 7.069014648437502  21.66394921875 6.424943359375003  C 21.66394921875 5.779462890625004  21.1416767578125 5.257228515625004  20.497529296875 5.257228515625004  Z M 26.331076171874997 19.100971679687504  L 26 19.10733203125  L 26 2.923208007812499  C 26.331837890625003 1.634341796874999  25.2868740234375 0.5892255859374993  23.99785546875 1  L 2.9920136718749983 1  C 1.7031474609374986 0.5892255859374993  0.6580312499999987 1.6343798828124996  1 2.923208007812499  L 1 26.262994140624997  C 0.6580312499999987 27.5520126953125  1.7031855468749988 28.596976562499997  2.9920136718749983 28.596976562499997  L 16.757871093749998 28.596976562499997  C 16.828482421875 28.6122490234375  16.909681640625 28.620894531250002  16.992861328125 28.620894531250002  C 17.314992187499996 28.620894531250002  17.606578125 28.4902216796875  17.8175361328125 28.278958984375002  L 26.001251953125 20.095243164062502  C 26.2125908203125 19.884437500000004  26.3433779296875 19.5928515625  26.3433779296875 19.2707587890625  C 26.3433779296875 19.2130966796875  26.339188476562498 19.156424804687504  26.331076171874997 19.100971679687504  Z M 22.3683486328125 20.427961914062497  L 18.163013671875 24.633296875  L 18.163013671875 20.427961914062497  L 22.3683486328125 20.427961914062497  Z M 24 18.094017578124998  L 23.997893554687497 18.094017578124998  L 16.995984374999995 18.094017578124998  C 16.3512275390625 18.094017578124998  15.828993164062497 18.6162900390625  15.828993164062497 19.2604375  L 15.829183593749999 19.2672548828125  L 15.828993164062497 19.273462890625  L 15.828993164062497 26  L 4.1591953125 26  C 4.158966796874999 26.262765625000004  4.158890625 26.262765625000004  4.158624023437499 26.262765625000004  C 3.514476562499999 26.262765625000004  2.9922041015625 25.740493164062503  2.9922041015625 25.096345703125003  C 2.9922041015625 25.096079101562506  2.9922041015625 25.096002929687504  3 25.095698242187503  L 3 4.0902373046875  C 2.9922041015625 4.090008789062502  2.9922041015625 4.0899326171875  2.9922041015625 4.089666015625001  C 2.9922041015625 3.4454804687500022  3.514476562499999 2.9232460937500013  4.158624023437499 2.9232460937500013  C 4.158890625 2.9232460937500013  4.158966796874999 2.9232460937500013  4.159271484374999 3  L 22.830978515625002 3  C 22.8312451171875 2.9232460937500013  22.831435546875 2.9232460937500013  22.831740234375 2.9232460937500013  C 23.475849609375004 2.9232460937500013  23.9980078125 3.445404296875001  23.9980078125 4.089513671875  C 23.9980078125 4.089780273437501  23.9980078125 4.090008789062502  24 4.090275390625001  L 24 18.094017578124998  Z " fill-rule="nonzero" fill="rgba(242, 242, 242, 0.6705882352941176)" stroke="none" transform="matrix(1 0 0 1 27 943 )" class="fill" />
    <path d="M 21.66394921875 11.092260742187502  C 21.66394921875 10.44719921875  21.14201953125 9.92526953125  20.496958007812502 10  L 6.493177734375001 10  C 5.8481162109375 9.92526953125  5.326186523437499 10.4471611328125  5.326186523437499 11.092260742187502  C 5.326186523437499 11.737360351562504  5.8481162109375 12.259251953125002  6.493177734375001 12.259251953125002  L 20.496958007812502 12.259251953125002  C 21.14201953125 12.259251953125002  21.66394921875 11.737322265625  21.66394921875 11.092260742187502  Z " stroke-width="0" stroke-dasharray="0" stroke="rgba(255, 255, 255, 0)" fill="none" transform="matrix(1 0 0 1 27 943 )" class="stroke" mask="url(#Clip142)" />
    <path d="M 20.496958007812502 5.257190429687501  L 6.493177734375001 5.257190429687501  C 5.8481162109375 5.257190429687501  5.326186523437499 5.779120117187501  5.326186523437499 6.424181640625001  C 5.326186523437499 7.069243164062501  5.8481162109375 7.5911728515625025  6.493177734375001 8  L 20.496958007812502 8  C 20.497262695312504 7.5911728515625025  20.4974150390625 7.5911728515625025  20.4977197265625 7.5911728515625025  C 21.1418291015625 7.5911728515625025  21.66394921875 7.069014648437502  21.66394921875 6.424943359375003  C 21.66394921875 5.779462890625004  21.1416767578125 5.257228515625004  20.497529296875 5.257228515625004  Z " stroke-width="0" stroke-dasharray="0" stroke="rgba(255, 255, 255, 0)" fill="none" transform="matrix(1 0 0 1 27 943 )" class="stroke" mask="url(#Clip142)" />
    <path d="M 26.331076171874997 19.100971679687504  L 26 19.10733203125  L 26 2.923208007812499  C 26.331837890625003 1.634341796874999  25.2868740234375 0.5892255859374993  23.99785546875 1  L 2.9920136718749983 1  C 1.7031474609374986 0.5892255859374993  0.6580312499999987 1.6343798828124996  1 2.923208007812499  L 1 26.262994140624997  C 0.6580312499999987 27.5520126953125  1.7031855468749988 28.596976562499997  2.9920136718749983 28.596976562499997  L 16.757871093749998 28.596976562499997  C 16.828482421875 28.6122490234375  16.909681640625 28.620894531250002  16.992861328125 28.620894531250002  C 17.314992187499996 28.620894531250002  17.606578125 28.4902216796875  17.8175361328125 28.278958984375002  L 26.001251953125 20.095243164062502  C 26.2125908203125 19.884437500000004  26.3433779296875 19.5928515625  26.3433779296875 19.2707587890625  C 26.3433779296875 19.2130966796875  26.339188476562498 19.156424804687504  26.331076171874997 19.100971679687504  Z " stroke-width="0" stroke-dasharray="0" stroke="rgba(255, 255, 255, 0)" fill="none" transform="matrix(1 0 0 1 27 943 )" class="stroke" mask="url(#Clip142)" />
    <path d="M 22.3683486328125 20.427961914062497  L 18.163013671875 24.633296875  L 18.163013671875 20.427961914062497  L 22.3683486328125 20.427961914062497  Z " stroke-width="0" stroke-dasharray="0" stroke="rgba(255, 255, 255, 0)" fill="none" transform="matrix(1 0 0 1 27 943 )" class="stroke" mask="url(#Clip142)" />
    <path d="M 24 18.094017578124998  L 23.997893554687497 18.094017578124998  L 16.995984374999995 18.094017578124998  C 16.3512275390625 18.094017578124998  15.828993164062497 18.6162900390625  15.828993164062497 19.2604375  L 15.829183593749999 19.2672548828125  L 15.828993164062497 19.273462890625  L 15.828993164062497 26  L 4.1591953125 26  C 4.158966796874999 26.262765625000004  4.158890625 26.262765625000004  4.158624023437499 26.262765625000004  C 3.514476562499999 26.262765625000004  2.9922041015625 25.740493164062503  2.9922041015625 25.096345703125003  C 2.9922041015625 25.096079101562506  2.9922041015625 25.096002929687504  3 25.095698242187503  L 3 4.0902373046875  C 2.9922041015625 4.090008789062502  2.9922041015625 4.0899326171875  2.9922041015625 4.089666015625001  C 2.9922041015625 3.4454804687500022  3.514476562499999 2.9232460937500013  4.158624023437499 2.9232460937500013  C 4.158890625 2.9232460937500013  4.158966796874999 2.9232460937500013  4.159271484374999 3  L 22.830978515625002 3  C 22.8312451171875 2.9232460937500013  22.831435546875 2.9232460937500013  22.831740234375 2.9232460937500013  C 23.475849609375004 2.9232460937500013  23.9980078125 3.445404296875001  23.9980078125 4.089513671875  C 23.9980078125 4.089780273437501  23.9980078125 4.090008789062502  24 4.090275390625001  L 24 18.094017578124998  Z " stroke-width="0" stroke-dasharray="0" stroke="rgba(255, 255, 255, 0)" fill="none" transform="matrix(1 0 0 1 27 943 )" class="stroke" mask="url(#Clip142)" />
  </g>
</svg>