<?xml version="1.0" encoding="utf-8"?>
<svg version="1.1" xmlns:xlink="http://www.w3.org/1999/xlink" width="156px" height="156px" xmlns="http://www.w3.org/2000/svg">
  <defs>
    <pattern id="BGPattern" patternUnits="userSpaceOnUse" alignment="0 0" imageRepeat="None" />
    <mask fill="white" id="Clip109">
      <path d="M 0 78  C 0 34.31999999999999  34.31999999999999 0  78 0  C 121.68 0  156 34.31999999999999  156 78  C 156 121.68  121.68 156  78 156  C 34.31999999999999 156  0 121.68  0 78  Z " fill-rule="evenodd" />
    </mask>
  </defs>
  <g transform="matrix(1 0 0 1 -93 -10 )">
    <path d="M 0 78  C 0 34.31999999999999  34.31999999999999 0  78 0  C 121.68 0  156 34.31999999999999  156 78  C 156 121.68  121.68 156  78 156  C 34.31999999999999 156  0 121.68  0 78  Z " fill-rule="nonzero" fill="rgba(255, 255, 255, 0)" stroke="none" transform="matrix(1 0 0 1 93 10 )" class="fill" />
    <path d="M 0 78  C 0 34.31999999999999  34.31999999999999 0  78 0  C 121.68 0  156 34.31999999999999  156 78  C 156 121.68  121.68 156  78 156  C 34.31999999999999 156  0 121.68  0 78  Z " stroke-width="2" stroke-dasharray="0" stroke="rgba(0, 255, 255, 0.09803921568627451)" fill="none" transform="matrix(1 0 0 1 93 10 )" class="stroke" mask="url(#Clip109)" />
  </g>
</svg>