<?xml version="1.0" encoding="utf-8"?>
<svg version="1.1" xmlns:xlink="http://www.w3.org/1999/xlink" width="24px" height="29px" xmlns="http://www.w3.org/2000/svg">
  <defs>
    <pattern id="BGPattern" patternUnits="userSpaceOnUse" alignment="0 0" imageRepeat="None" />
    <mask fill="white" id="Clip103">
      <path d="M 17.362765382296878 27.62857925305138  C 25.150816541230604 20.317404601224528  25.14158598847048 8.53748949718897  17.342085259546877 1.2368672216256005  C 17.057623183536982 0.9631965284901629  16.665778104315628 0.8086464673563607  16.256377533843754 0.8086464673563607  C 15.846976963371873 0.8086464673563607  15.45513188415052 0.9631965284901637  15.17066980814063 1.2368672216256005  C 14.62439253610725 1.777003067660614  14.62439253610725 2.618924546215588  15.170669808140623 3.159060392250601  C 21.825821107251294 9.357022085548797  21.825821107251294 19.393092827059377  15.17066980814063 25.591054520357567  C 14.565871936963065 26.15390640570041  14.56587193696307 27.06572736770854  15.17066980814063 27.62857925305138  C 15.776220801989028 28.190731120288987  16.757214388448475 28.190731120288987  17.362765382296878 27.62857925305138  Z M 10.538316866578121 23.01531568728666  C 15.39743137670817 18.355797462839824  15.39743137670817 10.951753459721774  10.538316866578125 6.292235234969953  C 9.94955172451635 5.802760278859321  9.059067316343025 5.802760278859321  8.470302174281251 6.292235234969951  C 7.934072225776288 6.836037406308522  7.934072225776288 7.670626207112449  8.470302174281255 8.214428378451021  C 12.282365647023004 11.77619325265835  12.282365647023004 17.53135764275932  8.470302174281251 21.09312251696665  C 7.943694618075536 21.640372172380733  7.943694618075539 22.468066031872578  8.470302174281251 23.015315687286655  C 9.055358303445505 23.513734549679093  9.953260737413867 23.513734549679082  10.538316866578121 23.01531568728666  Z M 3.274932135974709 12.135702422663766  C 2.5854146954029016 12.135702422663766  1.9244724492482472 12.391748409626215  1.4390521688906253 12.846913880021033  C 0.9540999857127748 13.294399244396127  0.6813588557787107 13.90328649424109  0.6813588557787107 14.538443858496093  C 0.6813588557787107 15.173601222751099  0.9540999857127748 15.782488472596063  1.4390521688906253 16.229973836971155  C 1.9244724492482481 16.685139307365976  2.5854146954029016 16.941185294328424  3.274932135974709 16.941185294328424  C 4.702598361052583 16.941185294328424  5.859950508318459 15.865441311292837  5.859950508318459 14.538443858496096  C 5.859950508318459 13.211446405699357  4.702598361052582 12.135702422663766  3.274932135974709 12.135702422663766  Z " fill-rule="evenodd" />
    </mask>
  </defs>
  <g transform="matrix(1 0 0 1 -11 -794 )">
    <path d="M 17.362765382296878 27.62857925305138  C 25.150816541230604 20.317404601224528  25.14158598847048 8.53748949718897  17.342085259546877 1.2368672216256005  C 17.057623183536982 0.9631965284901629  16.665778104315628 0.8086464673563607  16.256377533843754 0.8086464673563607  C 15.846976963371873 0.8086464673563607  15.45513188415052 0.9631965284901637  15.17066980814063 1.2368672216256005  C 14.62439253610725 1.777003067660614  14.62439253610725 2.618924546215588  15.170669808140623 3.159060392250601  C 21.825821107251294 9.357022085548797  21.825821107251294 19.393092827059377  15.17066980814063 25.591054520357567  C 14.565871936963065 26.15390640570041  14.56587193696307 27.06572736770854  15.17066980814063 27.62857925305138  C 15.776220801989028 28.190731120288987  16.757214388448475 28.190731120288987  17.362765382296878 27.62857925305138  Z M 10.538316866578121 23.01531568728666  C 15.39743137670817 18.355797462839824  15.39743137670817 10.951753459721774  10.538316866578125 6.292235234969953  C 9.94955172451635 5.802760278859321  9.059067316343025 5.802760278859321  8.470302174281251 6.292235234969951  C 7.934072225776288 6.836037406308522  7.934072225776288 7.670626207112449  8.470302174281255 8.214428378451021  C 12.282365647023004 11.77619325265835  12.282365647023004 17.53135764275932  8.470302174281251 21.09312251696665  C 7.943694618075536 21.640372172380733  7.943694618075539 22.468066031872578  8.470302174281251 23.015315687286655  C 9.055358303445505 23.513734549679093  9.953260737413867 23.513734549679082  10.538316866578121 23.01531568728666  Z M 3.274932135974709 12.135702422663766  C 2.5854146954029016 12.135702422663766  1.9244724492482472 12.391748409626215  1.4390521688906253 12.846913880021033  C 0.9540999857127748 13.294399244396127  0.6813588557787107 13.90328649424109  0.6813588557787107 14.538443858496093  C 0.6813588557787107 15.173601222751099  0.9540999857127748 15.782488472596063  1.4390521688906253 16.229973836971155  C 1.9244724492482481 16.685139307365976  2.5854146954029016 16.941185294328424  3.274932135974709 16.941185294328424  C 4.702598361052583 16.941185294328424  5.859950508318459 15.865441311292837  5.859950508318459 14.538443858496096  C 5.859950508318459 13.211446405699357  4.702598361052582 12.135702422663766  3.274932135974709 12.135702422663766  Z " fill-rule="nonzero" fill="rgba(47, 119, 241, 1)" stroke="none" transform="matrix(1 0 0 1 11 794 )" class="fill" />
    <path d="M 17.362765382296878 27.62857925305138  C 25.150816541230604 20.317404601224528  25.14158598847048 8.53748949718897  17.342085259546877 1.2368672216256005  C 17.057623183536982 0.9631965284901629  16.665778104315628 0.8086464673563607  16.256377533843754 0.8086464673563607  C 15.846976963371873 0.8086464673563607  15.45513188415052 0.9631965284901637  15.17066980814063 1.2368672216256005  C 14.62439253610725 1.777003067660614  14.62439253610725 2.618924546215588  15.170669808140623 3.159060392250601  C 21.825821107251294 9.357022085548797  21.825821107251294 19.393092827059377  15.17066980814063 25.591054520357567  C 14.565871936963065 26.15390640570041  14.56587193696307 27.06572736770854  15.17066980814063 27.62857925305138  C 15.776220801989028 28.190731120288987  16.757214388448475 28.190731120288987  17.362765382296878 27.62857925305138  Z " stroke-width="0" stroke-dasharray="0" stroke="rgba(255, 255, 255, 0)" fill="none" transform="matrix(1 0 0 1 11 794 )" class="stroke" mask="url(#Clip103)" />
    <path d="M 10.538316866578121 23.01531568728666  C 15.39743137670817 18.355797462839824  15.39743137670817 10.951753459721774  10.538316866578125 6.292235234969953  C 9.94955172451635 5.802760278859321  9.059067316343025 5.802760278859321  8.470302174281251 6.292235234969951  C 7.934072225776288 6.836037406308522  7.934072225776288 7.670626207112449  8.470302174281255 8.214428378451021  C 12.282365647023004 11.77619325265835  12.282365647023004 17.53135764275932  8.470302174281251 21.09312251696665  C 7.943694618075536 21.640372172380733  7.943694618075539 22.468066031872578  8.470302174281251 23.015315687286655  C 9.055358303445505 23.513734549679093  9.953260737413867 23.513734549679082  10.538316866578121 23.01531568728666  Z " stroke-width="0" stroke-dasharray="0" stroke="rgba(255, 255, 255, 0)" fill="none" transform="matrix(1 0 0 1 11 794 )" class="stroke" mask="url(#Clip103)" />
    <path d="M 3.274932135974709 12.135702422663766  C 2.5854146954029016 12.135702422663766  1.9244724492482472 12.391748409626215  1.4390521688906253 12.846913880021033  C 0.9540999857127748 13.294399244396127  0.6813588557787107 13.90328649424109  0.6813588557787107 14.538443858496093  C 0.6813588557787107 15.173601222751099  0.9540999857127748 15.782488472596063  1.4390521688906253 16.229973836971155  C 1.9244724492482481 16.685139307365976  2.5854146954029016 16.941185294328424  3.274932135974709 16.941185294328424  C 4.702598361052583 16.941185294328424  5.859950508318459 15.865441311292837  5.859950508318459 14.538443858496096  C 5.859950508318459 13.211446405699357  4.702598361052582 12.135702422663766  3.274932135974709 12.135702422663766  Z " stroke-width="0" stroke-dasharray="0" stroke="rgba(255, 255, 255, 0)" fill="none" transform="matrix(1 0 0 1 11 794 )" class="stroke" mask="url(#Clip103)" />
  </g>
</svg>