<?xml version="1.0" encoding="utf-8"?>
<svg version="1.1" xmlns:xlink="http://www.w3.org/1999/xlink" width="10px" height="15px" xmlns="http://www.w3.org/2000/svg">
  <defs>
    <pattern id="BGPattern" patternUnits="userSpaceOnUse" alignment="0 0" imageRepeat="None" />
    <mask fill="white" id="Clip104">
      <path d="M 0.7951760758463533 9.929793953111915  C 0.797554927293002 12.384342970048959  2.676221913844019 14.373519769600362  4.994407097981772 14.376038543018355  C 7.312592275127718 14.373519759153574  9.19125925078419 12.38434296265661  9.19363810221354 9.929793953111915  L 9.19363810221354 4.4462445993848405  C 9.19363810221354 1.9906515131270703  7.3135783386277575 0  4.994407089029949 0  C 2.675235839432138 0  0.7951760758463533 1.9906515131270686  0.7951760758463533 4.4462445993848405  L 0.7951760758463533 9.929793953111915  Z " fill-rule="evenodd" />
    </mask>
  </defs>
  <g transform="matrix(1 0 0 1 -288 -799 )">
    <path d="M 0.7951760758463533 9.929793953111915  C 0.797554927293002 12.384342970048959  2.676221913844019 14.373519769600362  4.994407097981772 14.376038543018355  C 7.312592275127718 14.373519759153574  9.19125925078419 12.38434296265661  9.19363810221354 9.929793953111915  L 9.19363810221354 4.4462445993848405  C 9.19363810221354 1.9906515131270703  7.3135783386277575 0  4.994407089029949 0  C 2.675235839432138 0  0.7951760758463533 1.9906515131270686  0.7951760758463533 4.4462445993848405  L 0.7951760758463533 9.929793953111915  Z " fill-rule="nonzero" fill="rgba(47, 119, 241, 1)" stroke="none" transform="matrix(1 0 0 1 288 799 )" class="fill" />
    <path d="M 0.7951760758463533 9.929793953111915  C 0.797554927293002 12.384342970048959  2.676221913844019 14.373519769600362  4.994407097981772 14.376038543018355  C 7.312592275127718 14.373519759153574  9.19125925078419 12.38434296265661  9.19363810221354 9.929793953111915  L 9.19363810221354 4.4462445993848405  C 9.19363810221354 1.9906515131270703  7.3135783386277575 0  4.994407089029949 0  C 2.675235839432138 0  0.7951760758463533 1.9906515131270686  0.7951760758463533 4.4462445993848405  L 0.7951760758463533 9.929793953111915  Z " stroke-width="0" stroke-dasharray="0" stroke="rgba(255, 255, 255, 0)" fill="none" transform="matrix(1 0 0 1 288 799 )" class="stroke" mask="url(#Clip104)" />
  </g>
</svg>