<?xml version="1.0" encoding="utf-8"?>
<svg version="1.1" xmlns:xlink="http://www.w3.org/1999/xlink" width="16px" height="14px" xmlns="http://www.w3.org/2000/svg">
  <defs>
    <pattern id="BGPattern" patternUnits="userSpaceOnUse" alignment="0 0" imageRepeat="None" />
    <mask fill="white" id="Clip105">
      <path d="M 8.792736885416664 11.226694902618796  C 10.433409838048398 11.043209064879319  11.960261929826208 10.310508989816373  13.117700270833332 9.151247638143083  C 14.471637592265182 7.802599138352411  15.231565879084984 5.983337331621114  15.232996355902777 4.0872469367090005  L 15.232996355902777 0.9740760305960178  C 15.232996365451388 0.5397355192268974  14.875405001233908 0.18773152031164714  14.434293698784721 0.18773152031164714  C 13.993182396335534 0.18773152031164714  13.635591032118056 0.5397355192268974  13.635591032118056 0.9739544572837868  L 13.635591041666666 4.087246936709002  C 13.65344390466838 7.172592289407099  11.128338580257632 9.688666967513468  7.994034237847221 9.708627590405584  C 4.860263401567794 9.687421610471473  2.3358960836400877 7.172082307997456  2.352477414930556 4.087246936709002  L 2.352477414930556 0.9740760305960178  C 2.3524092135399792 0.5399045743004842  1.994837830094522 0.18797466693385137  1.5537747578124999 0.18797466693385137  C 1.1127116855304768 0.18797466693385137  0.7551403020850205 0.539904574300485  0.7550721006944445 0.9740760305960178  L 0.755072100694445 4.087246936709002  C 0.7536997282334903 5.04205922124621  0.9470274515633237 5.98743031668351  1.3236010850694444 6.867349342557323  C 1.6865374526542045 7.7193146780742765  2.2124318904026317 8.494676863875906  2.8726699357638887 9.15124763814308  C 4.030148336688715 10.311732304624377  5.558180770991432 11.044608763670903  7.199935052083333 11.226694902618796  L 7.199935052083333 12.427554135455136  L 3.853209782986111 12.427554135455136  C 3.4121467159779604 12.427621271200184  3.0546306193668733 12.77960560154262  3.0546306193668733 13.21377706302786  C 3.0546306193668733 13.647948524513097  3.4121467159779604 13.999932854855537  3.853209782986111 13.999999990600585  L 12.139462154513888 13.999999990600585  C 12.580696960010506 14  12.938288324227987 13.647996001084751  12.938288324227987 13.21377706302786  C 12.938288324227987 12.779558124970968  12.580696960010506 12.427554126055718  12.13958565756132 12.427554126055718  L 8.792736885416666 12.427554135455136  L 8.792736885416664 11.226694902618796  Z " fill-rule="evenodd" />
    </mask>
  </defs>
  <g transform="matrix(1 0 0 1 -285 -805 )">
    <path d="M 8.792736885416664 11.226694902618796  C 10.433409838048398 11.043209064879319  11.960261929826208 10.310508989816373  13.117700270833332 9.151247638143083  C 14.471637592265182 7.802599138352411  15.231565879084984 5.983337331621114  15.232996355902777 4.0872469367090005  L 15.232996355902777 0.9740760305960178  C 15.232996365451388 0.5397355192268974  14.875405001233908 0.18773152031164714  14.434293698784721 0.18773152031164714  C 13.993182396335534 0.18773152031164714  13.635591032118056 0.5397355192268974  13.635591032118056 0.9739544572837868  L 13.635591041666666 4.087246936709002  C 13.65344390466838 7.172592289407099  11.128338580257632 9.688666967513468  7.994034237847221 9.708627590405584  C 4.860263401567794 9.687421610471473  2.3358960836400877 7.172082307997456  2.352477414930556 4.087246936709002  L 2.352477414930556 0.9740760305960178  C 2.3524092135399792 0.5399045743004842  1.994837830094522 0.18797466693385137  1.5537747578124999 0.18797466693385137  C 1.1127116855304768 0.18797466693385137  0.7551403020850205 0.539904574300485  0.7550721006944445 0.9740760305960178  L 0.755072100694445 4.087246936709002  C 0.7536997282334903 5.04205922124621  0.9470274515633237 5.98743031668351  1.3236010850694444 6.867349342557323  C 1.6865374526542045 7.7193146780742765  2.2124318904026317 8.494676863875906  2.8726699357638887 9.15124763814308  C 4.030148336688715 10.311732304624377  5.558180770991432 11.044608763670903  7.199935052083333 11.226694902618796  L 7.199935052083333 12.427554135455136  L 3.853209782986111 12.427554135455136  C 3.4121467159779604 12.427621271200184  3.0546306193668733 12.77960560154262  3.0546306193668733 13.21377706302786  C 3.0546306193668733 13.647948524513097  3.4121467159779604 13.999932854855537  3.853209782986111 13.999999990600585  L 12.139462154513888 13.999999990600585  C 12.580696960010506 14  12.938288324227987 13.647996001084751  12.938288324227987 13.21377706302786  C 12.938288324227987 12.779558124970968  12.580696960010506 12.427554126055718  12.13958565756132 12.427554126055718  L 8.792736885416666 12.427554135455136  L 8.792736885416664 11.226694902618796  Z " fill-rule="nonzero" fill="rgba(47, 119, 241, 1)" stroke="none" transform="matrix(1 0 0 1 285 805 )" class="fill" />
    <path d="M 8.792736885416664 11.226694902618796  C 10.433409838048398 11.043209064879319  11.960261929826208 10.310508989816373  13.117700270833332 9.151247638143083  C 14.471637592265182 7.802599138352411  15.231565879084984 5.983337331621114  15.232996355902777 4.0872469367090005  L 15.232996355902777 0.9740760305960178  C 15.232996365451388 0.5397355192268974  14.875405001233908 0.18773152031164714  14.434293698784721 0.18773152031164714  C 13.993182396335534 0.18773152031164714  13.635591032118056 0.5397355192268974  13.635591032118056 0.9739544572837868  L 13.635591041666666 4.087246936709002  C 13.65344390466838 7.172592289407099  11.128338580257632 9.688666967513468  7.994034237847221 9.708627590405584  C 4.860263401567794 9.687421610471473  2.3358960836400877 7.172082307997456  2.352477414930556 4.087246936709002  L 2.352477414930556 0.9740760305960178  C 2.3524092135399792 0.5399045743004842  1.994837830094522 0.18797466693385137  1.5537747578124999 0.18797466693385137  C 1.1127116855304768 0.18797466693385137  0.7551403020850205 0.539904574300485  0.7550721006944445 0.9740760305960178  L 0.755072100694445 4.087246936709002  C 0.7536997282334903 5.04205922124621  0.9470274515633237 5.98743031668351  1.3236010850694444 6.867349342557323  C 1.6865374526542045 7.7193146780742765  2.2124318904026317 8.494676863875906  2.8726699357638887 9.15124763814308  C 4.030148336688715 10.311732304624377  5.558180770991432 11.044608763670903  7.199935052083333 11.226694902618796  L 7.199935052083333 12.427554135455136  L 3.853209782986111 12.427554135455136  C 3.4121467159779604 12.427621271200184  3.0546306193668733 12.77960560154262  3.0546306193668733 13.21377706302786  C 3.0546306193668733 13.647948524513097  3.4121467159779604 13.999932854855537  3.853209782986111 13.999999990600585  L 12.139462154513888 13.999999990600585  C 12.580696960010506 14  12.938288324227987 13.647996001084751  12.938288324227987 13.21377706302786  C 12.938288324227987 12.779558124970968  12.580696960010506 12.427554126055718  12.13958565756132 12.427554126055718  L 8.792736885416666 12.427554135455136  L 8.792736885416664 11.226694902618796  Z " stroke-width="0" stroke-dasharray="0" stroke="rgba(255, 255, 255, 0)" fill="none" transform="matrix(1 0 0 1 285 805 )" class="stroke" mask="url(#Clip105)" />
  </g>
</svg>