<?xml version="1.0" encoding="utf-8"?>
<svg version="1.1" xmlns:xlink="http://www.w3.org/1999/xlink" width="3px" height="4px" xmlns="http://www.w3.org/2000/svg">
  <defs>
    <pattern id="BGPattern" patternUnits="userSpaceOnUse" alignment="0 0" imageRepeat="None" />
    <mask fill="white" id="Clip106">
      <path d="M 0.375 2  C 0.375 2.621320343559642  0.8786796564403576 3.125  1.5 3.125  C 2.121320343559642 3.125  2.625 2.621320343559642  2.625 2  C 2.625 1.378679656440358  2.121320343559642 0.875  1.5 0.875  C 0.8786796564403576 0.875  0.375 1.378679656440358  0.375 2  Z " fill-rule="evenodd" />
    </mask>
  </defs>
  <g transform="matrix(1 0 0 1 -86 -708 )">
    <path d="M 0.375 2  C 0.375 2.621320343559642  0.8786796564403576 3.125  1.5 3.125  C 2.121320343559642 3.125  2.625 2.621320343559642  2.625 2  C 2.625 1.378679656440358  2.121320343559642 0.875  1.5 0.875  C 0.8786796564403576 0.875  0.375 1.378679656440358  0.375 2  Z " fill-rule="nonzero" fill="rgba(64, 158, 255, 1)" stroke="none" transform="matrix(1 0 0 1 86 708 )" class="fill" />
    <path d="M 0.375 2  C 0.375 2.621320343559642  0.8786796564403576 3.125  1.5 3.125  C 2.121320343559642 3.125  2.625 2.621320343559642  2.625 2  C 2.625 1.378679656440358  2.121320343559642 0.875  1.5 0.875  C 0.8786796564403576 0.875  0.375 1.378679656440358  0.375 2  Z " stroke-width="0" stroke-dasharray="0" stroke="rgba(255, 255, 255, 0)" fill="none" transform="matrix(1 0 0 1 86 708 )" class="stroke" mask="url(#Clip106)" />
  </g>
</svg>