<?xml version="1.0" encoding="utf-8"?>
<svg version="1.1" xmlns:xlink="http://www.w3.org/1999/xlink" width="4px" height="10px" xmlns="http://www.w3.org/2000/svg">
  <defs>
    <pattern id="BGPattern" patternUnits="userSpaceOnUse" alignment="0 0" imageRepeat="None" />
    <mask fill="white" id="Clip107">
      <path d="M 1.4480468749999993 0.9640625000000007  C 1.2275755936401271 0.7495030422496933  0.8754027690857082 0.7526404393504009  0.6587890624999995 0.9710937500000005  C 0.553163171455247 1.0763145675522336  0.49378899309667723 1.219267962419134  0.49378899309667723 1.3683593750000007  C 0.49378899309667723 1.5174507875808674  0.553163171455247 1.6604041824477669  0.6587890624999995 1.765625  C 1.5289319368825076 2.61683543587709  2.019396484954319 3.7827457833366447  2.019396484954319 5  C 2.019396484954319 6.217254216663356  1.5289319368825076 7.383164564122911  0.6587890624999995 8.234375  C 0.5483635287925219 8.34044048006056  0.48594711371626076 8.486937491784687  0.48594711371626076 8.640050798048572  C 0.48594711371626076 8.950710969828393  0.7377869419364398 9.202550798048572  1.0484471137162608 9.202550798048572  C 1.1985414080178174 9.202550798048572  1.3424107236172969 9.14256442297414  1.4480468749999993 9.035937500000001  C 2.532900989159474 7.973271962266441  3.144265985153684 6.518606760848673  3.144265985153684 5  C 3.144265985153684 3.4813932391513305  2.5329009891594723 2.0267280377335597  1.4480468749999993 0.9640625000000007  Z " fill-rule="evenodd" />
    </mask>
  </defs>
  <g transform="matrix(1 0 0 1 -90 -705 )">
    <path d="M 1.4480468749999993 0.9640625000000007  C 1.2275755936401271 0.7495030422496933  0.8754027690857082 0.7526404393504009  0.6587890624999995 0.9710937500000005  C 0.553163171455247 1.0763145675522336  0.49378899309667723 1.219267962419134  0.49378899309667723 1.3683593750000007  C 0.49378899309667723 1.5174507875808674  0.553163171455247 1.6604041824477669  0.6587890624999995 1.765625  C 1.5289319368825076 2.61683543587709  2.019396484954319 3.7827457833366447  2.019396484954319 5  C 2.019396484954319 6.217254216663356  1.5289319368825076 7.383164564122911  0.6587890624999995 8.234375  C 0.5483635287925219 8.34044048006056  0.48594711371626076 8.486937491784687  0.48594711371626076 8.640050798048572  C 0.48594711371626076 8.950710969828393  0.7377869419364398 9.202550798048572  1.0484471137162608 9.202550798048572  C 1.1985414080178174 9.202550798048572  1.3424107236172969 9.14256442297414  1.4480468749999993 9.035937500000001  C 2.532900989159474 7.973271962266441  3.144265985153684 6.518606760848673  3.144265985153684 5  C 3.144265985153684 3.4813932391513305  2.5329009891594723 2.0267280377335597  1.4480468749999993 0.9640625000000007  Z " fill-rule="nonzero" fill="rgba(64, 158, 255, 1)" stroke="none" transform="matrix(1 0 0 1 90 705 )" class="fill" />
    <path d="M 1.4480468749999993 0.9640625000000007  C 1.2275755936401271 0.7495030422496933  0.8754027690857082 0.7526404393504009  0.6587890624999995 0.9710937500000005  C 0.553163171455247 1.0763145675522336  0.49378899309667723 1.219267962419134  0.49378899309667723 1.3683593750000007  C 0.49378899309667723 1.5174507875808674  0.553163171455247 1.6604041824477669  0.6587890624999995 1.765625  C 1.5289319368825076 2.61683543587709  2.019396484954319 3.7827457833366447  2.019396484954319 5  C 2.019396484954319 6.217254216663356  1.5289319368825076 7.383164564122911  0.6587890624999995 8.234375  C 0.5483635287925219 8.34044048006056  0.48594711371626076 8.486937491784687  0.48594711371626076 8.640050798048572  C 0.48594711371626076 8.950710969828393  0.7377869419364398 9.202550798048572  1.0484471137162608 9.202550798048572  C 1.1985414080178174 9.202550798048572  1.3424107236172969 9.14256442297414  1.4480468749999993 9.035937500000001  C 2.532900989159474 7.973271962266441  3.144265985153684 6.518606760848673  3.144265985153684 5  C 3.144265985153684 3.4813932391513305  2.5329009891594723 2.0267280377335597  1.4480468749999993 0.9640625000000007  Z " stroke-width="0" stroke-dasharray="0" stroke="rgba(255, 255, 255, 0)" fill="none" transform="matrix(1 0 0 1 90 705 )" class="stroke" mask="url(#Clip107)" />
  </g>
</svg>