<?xml version="1.0" encoding="utf-8"?>
<svg version="1.1" xmlns:xlink="http://www.w3.org/1999/xlink" width="5px" height="16px" xmlns="http://www.w3.org/2000/svg">
  <defs>
    <pattern id="BGPattern" patternUnits="userSpaceOnUse" alignment="0 0" imageRepeat="None" />
    <mask fill="white" id="Clip108">
      <path d="M 4.625340750093159 8.000000000000002  C 4.625340750093159 5.3088430571053165  3.54105641005677 2.7311872888850863  1.617382812499999 0.8492187500000001  C 1.5126188544788057 0.7485913033625449  1.372987867119468 0.6923945480485769  1.2277247612837456 0.6923945480485769  C 0.9170645895039247 0.6923945480485769  0.6652247612837456 0.9442343762687555  0.6652247612837456 1.254894548048577  C 0.6652247612837456 1.403169227171352  0.7237694911985404 1.5454469808766493  0.828125 1.65078125  C 2.5366428160549894 3.321534205711802  3.499717323111234 5.610345513092524  3.499717323111234 7.999999999999998  C 3.499717323111234 10.389654486907473  2.5366428160549894 12.678465794288197  0.828125 14.34921875  C 0.7176994662925225 14.45528423006056  0.6552830512162622 14.601781241784687  0.6552830512162622 14.754894548048572  C 0.6552830512162622 15.065554719828391  0.9071228794364412 15.317394548048572  1.2177830512162622 15.317394548048572  C 1.3678773455178188 15.317394548048572  1.5117466611172983 15.257408172974142  1.617382812499999 15.150781250000001  C 3.54105641005677 13.268812711114915  4.625340750093159 10.691156942894686  4.625340750093159 8.000000000000002  Z " fill-rule="evenodd" />
    </mask>
  </defs>
  <g transform="matrix(1 0 0 1 -93 -702 )">
    <path d="M 4.625340750093159 8.000000000000002  C 4.625340750093159 5.3088430571053165  3.54105641005677 2.7311872888850863  1.617382812499999 0.8492187500000001  C 1.5126188544788057 0.7485913033625449  1.372987867119468 0.6923945480485769  1.2277247612837456 0.6923945480485769  C 0.9170645895039247 0.6923945480485769  0.6652247612837456 0.9442343762687555  0.6652247612837456 1.254894548048577  C 0.6652247612837456 1.403169227171352  0.7237694911985404 1.5454469808766493  0.828125 1.65078125  C 2.5366428160549894 3.321534205711802  3.499717323111234 5.610345513092524  3.499717323111234 7.999999999999998  C 3.499717323111234 10.389654486907473  2.5366428160549894 12.678465794288197  0.828125 14.34921875  C 0.7176994662925225 14.45528423006056  0.6552830512162622 14.601781241784687  0.6552830512162622 14.754894548048572  C 0.6552830512162622 15.065554719828391  0.9071228794364412 15.317394548048572  1.2177830512162622 15.317394548048572  C 1.3678773455178188 15.317394548048572  1.5117466611172983 15.257408172974142  1.617382812499999 15.150781250000001  C 3.54105641005677 13.268812711114915  4.625340750093159 10.691156942894686  4.625340750093159 8.000000000000002  Z " fill-rule="nonzero" fill="rgba(64, 158, 255, 1)" stroke="none" transform="matrix(1 0 0 1 93 702 )" class="fill" />
    <path d="M 4.625340750093159 8.000000000000002  C 4.625340750093159 5.3088430571053165  3.54105641005677 2.7311872888850863  1.617382812499999 0.8492187500000001  C 1.5126188544788057 0.7485913033625449  1.372987867119468 0.6923945480485769  1.2277247612837456 0.6923945480485769  C 0.9170645895039247 0.6923945480485769  0.6652247612837456 0.9442343762687555  0.6652247612837456 1.254894548048577  C 0.6652247612837456 1.403169227171352  0.7237694911985404 1.5454469808766493  0.828125 1.65078125  C 2.5366428160549894 3.321534205711802  3.499717323111234 5.610345513092524  3.499717323111234 7.999999999999998  C 3.499717323111234 10.389654486907473  2.5366428160549894 12.678465794288197  0.828125 14.34921875  C 0.7176994662925225 14.45528423006056  0.6552830512162622 14.601781241784687  0.6552830512162622 14.754894548048572  C 0.6552830512162622 15.065554719828391  0.9071228794364412 15.317394548048572  1.2177830512162622 15.317394548048572  C 1.3678773455178188 15.317394548048572  1.5117466611172983 15.257408172974142  1.617382812499999 15.150781250000001  C 3.54105641005677 13.268812711114915  4.625340750093159 10.691156942894686  4.625340750093159 8.000000000000002  Z " stroke-width="0" stroke-dasharray="0" stroke="rgba(255, 255, 255, 0)" fill="none" transform="matrix(1 0 0 1 93 702 )" class="stroke" mask="url(#Clip108)" />
  </g>
</svg>