<?xml version="1.0" encoding="utf-8"?>
<svg version="1.1" xmlns:xlink="http://www.w3.org/1999/xlink" width="8px" height="9px" xmlns="http://www.w3.org/2000/svg">
  <defs>
    <pattern id="BGPattern" patternUnits="userSpaceOnUse" alignment="0 0" imageRepeat="None" />
    <mask fill="white" id="Clip113">
      <path d="M 7.586928114583332 8.056684478160511  C 7.586928114583332 8.575507979936077  7.1257516414930535 9  6.562091498263887 9  L 1.4379085017361097 9  C 0.8742483585069465 9  0.4130718854166686 8.575508019087358  0.4130718854166686 8.056684478160511  C 0.4130718854166686 7.537860937233665  0.8742483585069465 7.113368956321024  1.4379085017361097 7.113368995472302  L 2.9751633836805556 7.113368995472302  L 2.9751633836805556 1.4534759427379256  C 2.9751633836805556 0.9346524018110791  3.4363398567708336 0.5101604208984369  4 0.5101604208984369  C 4.563660143229167 0.5101604208984369  5.024836616319444 0.9346524018110791  5.024836616319444 1.4534759427379256  L 5.024836616319444 7.113368995472302  L 6.562091498263887 7.113368995472302  C 7.1257516414930535 7.113368995472302  7.586928114583332 7.537860976384946  7.586928114583332 8.056684478160511  Z " fill-rule="evenodd" />
    </mask>
  </defs>
  <g transform="matrix(1 0 0 1 -167 -104 )">
    <path d="M 7.586928114583332 8.056684478160511  C 7.586928114583332 8.575507979936077  7.1257516414930535 9  6.562091498263887 9  L 1.4379085017361097 9  C 0.8742483585069465 9  0.4130718854166686 8.575508019087358  0.4130718854166686 8.056684478160511  C 0.4130718854166686 7.537860937233665  0.8742483585069465 7.113368956321024  1.4379085017361097 7.113368995472302  L 2.9751633836805556 7.113368995472302  L 2.9751633836805556 1.4534759427379256  C 2.9751633836805556 0.9346524018110791  3.4363398567708336 0.5101604208984369  4 0.5101604208984369  C 4.563660143229167 0.5101604208984369  5.024836616319444 0.9346524018110791  5.024836616319444 1.4534759427379256  L 5.024836616319444 7.113368995472302  L 6.562091498263887 7.113368995472302  C 7.1257516414930535 7.113368995472302  7.586928114583332 7.537860976384946  7.586928114583332 8.056684478160511  Z " fill-rule="nonzero" fill="rgba(175, 252, 254, 1)" stroke="none" transform="matrix(1 0 0 1 167 104 )" class="fill" />
    <path d="M 7.586928114583332 8.056684478160511  C 7.586928114583332 8.575507979936077  7.1257516414930535 9  6.562091498263887 9  L 1.4379085017361097 9  C 0.8742483585069465 9  0.4130718854166686 8.575508019087358  0.4130718854166686 8.056684478160511  C 0.4130718854166686 7.537860937233665  0.8742483585069465 7.113368956321024  1.4379085017361097 7.113368995472302  L 2.9751633836805556 7.113368995472302  L 2.9751633836805556 1.4534759427379256  C 2.9751633836805556 0.9346524018110791  3.4363398567708336 0.5101604208984369  4 0.5101604208984369  C 4.563660143229167 0.5101604208984369  5.024836616319444 0.9346524018110791  5.024836616319444 1.4534759427379256  L 5.024836616319444 7.113368995472302  L 6.562091498263887 7.113368995472302  C 7.1257516414930535 7.113368995472302  7.586928114583332 7.537860976384946  7.586928114583332 8.056684478160511  Z " stroke-width="0" stroke-dasharray="0" stroke="rgba(255, 255, 255, 0)" fill="none" transform="matrix(1 0 0 1 167 104 )" class="stroke" mask="url(#Clip113)" />
  </g>
</svg>