<?xml version="1.0" encoding="utf-8"?>
<svg version="1.1" xmlns:xlink="http://www.w3.org/1999/xlink" width="30px" height="35px" xmlns="http://www.w3.org/2000/svg">
  <defs>
    <pattern id="BGPattern" patternUnits="userSpaceOnUse" alignment="0 0" imageRepeat="None" />
    <mask fill="white" id="Clip114">
      <path d="M 29.329411769531248 20.17647059069824  C 29.329411769531248 28.247058818603517  22.905882345703127 34.804411772094724  15 34.804411772094724  C 7.094117654296874 34.804411772094724  0.6705882304687493 28.247058818603517  0.6705882304687493 20.176470590698244  L 0.6705882304687493 16.645588227905275  C 0.6705882304687493 16.090735274414065  1.1152941152343752 15.636764683715821  1.6588235390625 15.636764725585941  C 2.202352962890625 15.636764767456055  2.64705884765625 16.09073531628418  2.647058806640625 16.645588227905275  L 2.647058806640625 20.176470590698244  C 2.647058806640625 27.137352953491213  8.1811764609375 32.78676472558594  15 32.78676472558594  C 21.818823539062503 32.78676472558594  27.352941193359378 27.13735295349121  27.352941193359378 20.17647059069824  L 27.352941193359378 16.64558822790527  C 27.352941193359378 16.090735274414065  27.797647078125003 15.636764683715821  28.3411764609375 15.636764725585937  C 28.884705843749998 15.636764767456054  29.329411769531248 16.09073531628418  29.329411769531248 16.64558822790527  L 29.329411769531248 20.17647059069824  Z M 24.882352921874997 20.176470590698244  C 24.882352921874997 25.725000000000005  20.435294115234374 30.2647058651123  15 30.2647058651123  C 9.564705884765626 30.2647058651123  5.1176470781250005 25.724999999999998  5.1176470781250005 20.176470590698244  L 5.1176470781250005 10.088235274414064  C 5.1176470781250005 4.539705865112305  9.564705884765626 0  15 0  C 20.435294115234374 0  24.882352921874997 4.539705865112305  24.882352921874997 10.088235274414064  L 24.882352921874997 20.176470590698244  Z " fill-rule="evenodd" />
    </mask>
  </defs>
  <g transform="matrix(1 0 0 1 -156 -70 )">
    <path d="M 29.329411769531248 20.17647059069824  C 29.329411769531248 28.247058818603517  22.905882345703127 34.804411772094724  15 34.804411772094724  C 7.094117654296874 34.804411772094724  0.6705882304687493 28.247058818603517  0.6705882304687493 20.176470590698244  L 0.6705882304687493 16.645588227905275  C 0.6705882304687493 16.090735274414065  1.1152941152343752 15.636764683715821  1.6588235390625 15.636764725585941  C 2.202352962890625 15.636764767456055  2.64705884765625 16.09073531628418  2.647058806640625 16.645588227905275  L 2.647058806640625 20.176470590698244  C 2.647058806640625 27.137352953491213  8.1811764609375 32.78676472558594  15 32.78676472558594  C 21.818823539062503 32.78676472558594  27.352941193359378 27.13735295349121  27.352941193359378 20.17647059069824  L 27.352941193359378 16.64558822790527  C 27.352941193359378 16.090735274414065  27.797647078125003 15.636764683715821  28.3411764609375 15.636764725585937  C 28.884705843749998 15.636764767456054  29.329411769531248 16.09073531628418  29.329411769531248 16.64558822790527  L 29.329411769531248 20.17647059069824  Z M 24.882352921874997 20.176470590698244  C 24.882352921874997 25.725000000000005  20.435294115234374 30.2647058651123  15 30.2647058651123  C 9.564705884765626 30.2647058651123  5.1176470781250005 25.724999999999998  5.1176470781250005 20.176470590698244  L 5.1176470781250005 10.088235274414064  C 5.1176470781250005 4.539705865112305  9.564705884765626 0  15 0  C 20.435294115234374 0  24.882352921874997 4.539705865112305  24.882352921874997 10.088235274414064  L 24.882352921874997 20.176470590698244  Z " fill-rule="nonzero" fill="rgba(47, 119, 241, 1)" stroke="none" transform="matrix(1 0 0 1 156 70 )" class="fill" />
    <path d="M 29.329411769531248 20.17647059069824  C 29.329411769531248 28.247058818603517  22.905882345703127 34.804411772094724  15 34.804411772094724  C 7.094117654296874 34.804411772094724  0.6705882304687493 28.247058818603517  0.6705882304687493 20.176470590698244  L 0.6705882304687493 16.645588227905275  C 0.6705882304687493 16.090735274414065  1.1152941152343752 15.636764683715821  1.6588235390625 15.636764725585941  C 2.202352962890625 15.636764767456055  2.64705884765625 16.09073531628418  2.647058806640625 16.645588227905275  L 2.647058806640625 20.176470590698244  C 2.647058806640625 27.137352953491213  8.1811764609375 32.78676472558594  15 32.78676472558594  C 21.818823539062503 32.78676472558594  27.352941193359378 27.13735295349121  27.352941193359378 20.17647059069824  L 27.352941193359378 16.64558822790527  C 27.352941193359378 16.090735274414065  27.797647078125003 15.636764683715821  28.3411764609375 15.636764725585937  C 28.884705843749998 15.636764767456054  29.329411769531248 16.09073531628418  29.329411769531248 16.64558822790527  L 29.329411769531248 20.17647059069824  Z " stroke-width="0" stroke-dasharray="0" stroke="rgba(255, 255, 255, 0)" fill="none" transform="matrix(1 0 0 1 156 70 )" class="stroke" mask="url(#Clip114)" />
    <path d="M 24.882352921874997 20.176470590698244  C 24.882352921874997 25.725000000000005  20.435294115234374 30.2647058651123  15 30.2647058651123  C 9.564705884765626 30.2647058651123  5.1176470781250005 25.724999999999998  5.1176470781250005 20.176470590698244  L 5.1176470781250005 10.088235274414064  C 5.1176470781250005 4.539705865112305  9.564705884765626 0  15 0  C 20.435294115234374 0  24.882352921874997 4.539705865112305  24.882352921874997 10.088235274414064  L 24.882352921874997 20.176470590698244  Z " stroke-width="0" stroke-dasharray="0" stroke="rgba(255, 255, 255, 0)" fill="none" transform="matrix(1 0 0 1 156 70 )" class="stroke" mask="url(#Clip114)" />
  </g>
</svg>