<?xml version="1.0" standalone="no"?><!DOCTYPE svg PUBLIC "-//W3C//DTD SVG 1.1//EN" "http://www.w3.org/Graphics/SVG/1.1/DTD/svg11.dtd"><svg t="1730102485464" class="icon" viewBox="0 0 1024 1024" version="1.1" xmlns="http://www.w3.org/2000/svg" p-id="11430" width="40" height="40" xmlns:xlink="http://www.w3.org/1999/xlink"><path d="M226.504348 970.321623C133.068058 932.181333 81.600928 878.903652 81.600928 820.238841c0-28.657159 12.273159-56.141913 36.478144-81.638029 12.955826-13.994667 37.309217-16.725333 54.361044-6.084638 17.066667 10.655536 20.376116 30.630957 7.42029 44.625623a33.628754 33.628754 0 0 1-0.563942 0.578783c-13.326841 14.054029-20.094145 28.360348-20.094145 42.518261 0 32.738319 62.760812 52.936348 127.48058 79.36742 32.204058 13.148754 268.495768 33.762319 396.184115 7.375768 166.837797-34.489507 210.216812-121.262377 202.559073-129.261449-13.222957-13.846261-21.652406-41.316174 9.527652-59.555247s56.631652 6.173681 69.854609 20.019942C989.295304 763.770435 1001.71687 791.373913 1001.71687 820.224c0 58.649971-51.46713 111.942493-144.903421 150.097623C771.984696 1004.929855 660.057043 1024 541.658899 1024c-118.398145 0-230.325797-19.099826-315.154551-53.678377zM581.238725 71.116058c35.617391 25.659362 132.570899 85.630145 263.257043 88.33113a42.147246 42.147246 0 0 1 40.930319 41.998841v291.483826c0 40.618667-24.219826 113.233623-78.34342 183.934145-44.877913 58.575768-125.328696 134.633739-253.773913 163.854841a31.654957 31.654957 0 0 1-7.049276 0.801391h-0.801391a31.580754 31.580754 0 0 1-7.835826-0.786551c-128.371014-29.265623-208.806957-105.293913-253.68487-163.914203-54.108754-70.685681-78.34342-143.315478-78.34342-183.919304V201.446029a42.147246 42.147246 0 0 1 40.945159-41.998841c130.56742-2.671304 226.615652-62.567884 261.847189-88.182724a62.033623 62.033623 0 0 1 72.867246-0.148406z" fill="#CFC1EE" p-id="11431"></path><path d="M806.681971 912.057507C895.161507 875.935536 942.354551 827.065507 942.354551 775.717101c0-24.783768-10.803942-48.825507-32.797681-71.798724-8.221681-8.607536-24.724406-10.254841-35.706435-3.190725-9.201159 5.906551-10.536812 15.018667-3.917913 21.964058 15.983304 16.665971 24.501797 34.56371 24.501797 53.025391 0 40.574145-41.375536 78.387942-111.09658 106.807653C707.116522 913.615768 605.577275 930.652754 497.137159 930.652754c-108.469797 0-210.023884-17.022145-286.200579-48.128-69.765565-28.493913-111.09658-66.233507-111.09658-106.807653 0-18.328116 8.399768-36.121971 24.294029-52.862144l0.296812-0.326493c6.485333-6.975072 4.971594-16.102029-4.363131-21.934377-11.130435-6.945391-27.603478-5.105159-35.765797 3.710145C62.604986 727.143884 51.919768 751.052058 51.919768 775.68742c0 51.348406 47.193043 100.233275 135.657739 136.355247C270.566029 945.879188 380.653449 964.637681 497.137159 964.637681c116.572754 0 226.615652-18.743652 309.544812-52.580174zM176.37287 939.557101C77.935304 899.353971 22.238609 841.653797 22.238609 775.702261c0-32.708638 13.861101-63.74029 40.425739-91.714783 17.897739-19.337275 50.131478-22.928696 73.119536-8.592695 24.783768 15.463884 29.888928 46.302609 10.432928 67.302029l-0.667826 0.697507c-10.907826 11.486609-16.027826 22.320232-16.027827 32.307942 0 24.887652 32.886725 54.939826 92.634899 79.322898C294.489043 884.557913 392.288464 900.971594 497.137159 900.971594c104.819014 0 202.618435-16.384 274.995942-45.931594 59.688812-24.338551 92.620058-54.420406 92.620058-79.322899 0-10.061913-5.194203-20.954899-16.265275-32.500869-19.812174-20.74713-15.241275-51.660058 9.305044-67.450435 22.735768-14.632812 55.014029-11.427246 73.22342 7.642899C958.011362 711.605797 972.03571 742.771014 972.03571 775.702261c0 65.936696-55.711536 123.65171-154.134261 163.84C731.158261 974.937043 617.331014 994.318841 497.137159 994.318841c-120.119652 0-233.961739-19.396638-320.764289-54.77658zM528.035246 38.630029a47.193043 47.193043 0 0 0-55.444405 0.118725C402.899478 89.399652 310.709797 127.554783 202.403246 129.766029a27.276986 27.276986 0 0 0-26.490434 27.158261v291.454145c0 43.037681 28.048696 113.189101 75.28626 174.896232 58.427362 76.325101 139.145275 134.277565 245.22574 158.46771 1.365333 0.311652 2.760348 0.445217 4.511536 0.415536h0.786551c1.261449 0 2.522899-0.148406 3.769507-0.430377 106.110145-24.130783 186.798377-82.068406 245.285101-158.408348 47.237565-61.70713 75.286261-131.858551 75.286261-174.911072V157.013333a27.306667 27.306667 0 0 0-26.445913-27.232463c-108.440116-2.255768-201.238261-40.470261-271.582609-91.136z m272.250435 61.454841h0.089044a56.987826 56.987826 0 0 1 55.355362 56.83942v291.483826c0 50.220522-30.45287 126.441739-81.385739 192.957217-62.434319 81.489623-148.806493 143.508406-262.247884 169.301334a46.525217 46.525217 0 0 1-10.358725 1.187246l-0.445217-0.014841a46.376812 46.376812 0 0 1-11.486609-1.157565c-113.426551-25.86713-199.813565-87.900754-262.173681-169.360695-50.918029-66.530319-81.40058-142.736696-81.40058-192.942377V156.864928a56.987826 56.987826 0 0 1 55.474087-56.780058A445.989101 445.989101 0 0 0 455.138319 14.751536 76.859362 76.859362 0 0 1 545.398725 14.543768c65.877333 47.460174 153.258667 83.433739 254.886956 85.541102zM498.502493 157.161739c33.228058 0 60.134029 27.024696 60.134029 60.326957v244.008811a60.237913 60.237913 0 0 1-60.134029 60.341797 60.237913 60.237913 0 0 1-60.14887-60.341797V217.488696a60.237913 60.237913 0 0 1 60.14887-60.326957z m-65.387594 438.064232c0-36.211014 29.250783-65.595362 65.387594-65.595362a65.491478 65.491478 0 0 1 65.387594 65.595362c0 36.211014-29.265623 65.595362-65.387594 65.595362a65.491478 65.491478 0 0 1-65.387594-65.595362z" fill="#906DDE" p-id="11432"></path><path d="M468.034783 461.497507V217.488696c0-16.933101 13.653333-30.645797 30.46771-30.645797 16.799536 0 30.45287 13.712696 30.452869 30.645797v244.008811c0 16.947942-13.653333 30.660638-30.452869 30.660638a30.556754 30.556754 0 0 1-30.46771-30.660638z m66.174145 133.728464a35.810319 35.810319 0 0 1-35.706435 35.914203 35.810319 35.810319 0 0 1-35.706435-35.914203 35.810319 35.810319 0 0 1 35.706435-35.914203 35.810319 35.810319 0 0 1 35.706435 35.914203z" fill="#FFFFFF" p-id="11433"></path></svg>