<?xml version="1.0" standalone="no"?><!DOCTYPE svg PUBLIC "-//W3C//DTD SVG 1.1//EN" "http://www.w3.org/Graphics/SVG/1.1/DTD/svg11.dtd"><svg t="1730102623002" class="icon" viewBox="0 0 1024 1024" version="1.1" xmlns="http://www.w3.org/2000/svg" p-id="17768" width="40" height="40" xmlns:xlink="http://www.w3.org/1999/xlink"><path d="M322.730667 292.181333c-35.498667 0-64.170667 28.672-64.170667 64.170667s28.672 64.170667 64.170667 64.170667 64.170667-28.672 64.170666-64.170667a64.3072 64.3072 0 0 0-64.170666-64.170667z" fill="#4680FF" p-id="17769"></path><path d="M828.586667 0h-633.173334C87.381333 0 0 87.381333 0 195.413333v633.344C0 936.618667 87.381333 1024 195.413333 1024h633.344C936.618667 1024 1024 936.618667 1024 828.586667v-633.173334C1024 87.381333 936.618667 0 828.586667 0zM176.298667 408.917333c0-111.786667 90.453333-202.24 202.24-202.24s202.24 90.624 202.24 202.24c0 111.786667-90.624 202.24-202.24 202.24-111.786667 0.170667-202.24-90.624-202.24-202.24z m603.306666 364.032C724.138667 827.221333 715.093333 836.266667 715.093333 836.266667l-89.088-7.68 1.194667-95.402667h-100.693333l-37.376-41.301333-3.925334-78.677334s32.597333-17.237333 60.074667-49.493333l167.082667 175.957333 32.256-1.194666 1.194666-19.456-177.834666-187.392h-0.512l30.208-50.346667 187.050666 194.901333s50.346667 42.666667-5.12 96.768z" fill="#4680FF" p-id="17770"></path></svg>