<?xml version="1.0" standalone="no"?><!DOCTYPE svg PUBLIC "-//W3C//DTD SVG 1.1//EN" "http://www.w3.org/Graphics/SVG/1.1/DTD/svg11.dtd"><svg t="1729824251009" class="icon" viewBox="0 0 1024 1024" version="1.1" xmlns="http://www.w3.org/2000/svg" p-id="7898" width="32" height="32" xmlns:xlink="http://www.w3.org/1999/xlink"><path d="M532.48 818.176c4.096 0 8.704-0.512 12.8-1.024 41.472-5.12 77.312-35.328 90.112-77.824 1.024-3.072-0.512-6.656-3.584-8.192-3.072-1.536-6.144 0-8.192 2.56 0 0.512-16.896 28.672-81.408 36.864-9.728 1.536-18.944 2.048-28.16 2.048-45.056 0-65.536-17.92-65.536-17.92-2.048-2.048-5.632-2.048-8.192 0s-3.072 5.632-1.536 8.192c20.992 35.328 56.32 55.296 93.696 55.296" fill="#1890FF" p-id="7899"></path><path d="M846.336 382.976c-50.688-141.824-181.76-242.688-336.384-242.688-154.112 0-284.672 99.84-335.872 240.64a69.889 69.889 0 0 0-8.704-8.704C194.56 201.216 337.408 70.656 509.952 70.656c171.52 0 313.856 129.024 344.064 299.008-3.072 4.608-5.632 8.704-7.68 13.312m71.68-46.08h-2.048C872.448 143.872 707.584 0 509.952 0c-203.264 0-371.712 152.064-409.6 352.256-36.352 6.656-64 39.424-64 79.872v159.744c0 44.544 34.304 81.408 77.824 81.408 24.576 0 45.568-11.776 59.904-30.208 34.304 94.208 103.936 168.96 193.024 209.408 0-0.512 2.048-4.096 4.096-6.656 1.536-2.048 3.072-3.584 4.096-3.584 1.536 0 2.56 0.512 3.584 1.536-20.48-15.872-94.72-96.256-110.592-209.92-7.168-49.664 28.672-98.304 71.168-106.496 67.584-13.312 134.656-28.16 202.24-40.448 42.496-8.192 72.192-32.256 90.112-72.704 4.096-9.728 10.24-28.672 13.312-55.808 0.512-4.096 4.096-7.168 8.192-7.168 2.56 0 5.12 1.536 6.656 3.584l2.048-1.024c26.624 39.424 79.36 128 87.04 221.184 8.704 105.984 4.096 179.2-75.264 253.44l-0.512 0.512c-1.024 1.024-1.536 3.072-1.536 4.608 0 2.56 1.024 4.096 3.072 5.632 0.512 0.512 1.536 0.512 2.048 1.024 0.512 0 1.024 0.512 1.536 0.512s1.024 0 1.536-0.512c1.024-0.512 2.048-1.536 3.072-2.048 79.872-45.056 140.8-120.832 168.96-212.48 11.776 17.92 29.696 30.208 50.176 34.304-33.28 156.672-168.448 254.464-336.896 269.824-10.24-26.112-34.816-44.032-64-44.032-37.888 0-68.608 31.232-68.608 69.12s31.232 69.12 68.608 69.12c30.72 0 56.32-20.48 65.024-48.128C760.32 959.488 916.48 840.192 948.736 655.36c29.184-12.288 48.64-41.472 48.64-75.264V418.304c0-45.056-35.328-81.408-79.36-81.408" fill="#1890FF" p-id="7900"></path></svg>