<?xml version="1.0" standalone="no"?><!DOCTYPE svg PUBLIC "-//W3C//DTD SVG 1.1//EN" "http://www.w3.org/Graphics/SVG/1.1/DTD/svg11.dtd"><svg t="1729479846584" class="icon" viewBox="0 0 1024 1024" version="1.1" xmlns="http://www.w3.org/2000/svg" p-id="6396" width="16" height="16" xmlns:xlink="http://www.w3.org/1999/xlink"><path d="M811.648 62.592H212.352c-82.816 0-149.888 66.688-149.888 148.992v595.712c0 82.176 67.072 148.864 149.888 148.992H392.96c20.48-0.128 37.12-16.64 37.248-36.992-0.128-20.352-16.64-36.864-37.248-36.992H212.352c-19.84 0-38.912-7.808-52.992-21.76s-22.016-32.896-22.016-52.608V212.096c0-41.088 33.536-74.368 75.008-74.496h599.296c41.344 0 75.008 33.408 75.008 74.496v224.768c0.64 20.096 17.536 35.968 37.76 35.456 20.48-0.128 37.12-16.64 37.12-36.992V211.456c0-82.176-67.072-148.864-149.888-148.864z m-352 463.872H288.768c-17.408 0-31.616 14.976-31.616 33.408 0 18.304 14.208 33.408 31.616 33.408h171.008c17.408 0 31.616-15.104 31.616-33.408s-14.336-33.408-31.744-33.408z m93.696-148.48H288.768c-17.408 0-31.616 14.976-31.616 33.408 0 18.432 14.208 33.408 31.616 33.408h264.576c17.408 0 31.616-14.976 31.616-33.408 0-18.432-14.208-33.408-31.616-33.408z m-264.576-81.536h358.272c17.408 0 31.744-14.976 31.744-33.408 0-18.432-14.208-33.408-31.744-33.408H288.768c-17.408 0-31.616 14.976-31.616 33.408 0 18.304 14.208 33.408 31.616 33.408z m652.16 326.016c-13.056-13.056-33.792-13.824-46.208-1.536l-119.424 118.528-119.424-118.528c-12.288-12.16-33.024-11.52-46.208 1.536s-13.696 33.536-1.408 45.824l119.424 118.528-119.296 118.528c-12.288 12.288-11.648 32.896 1.408 45.952s33.92 13.696 46.208 1.408l119.424-118.528 119.424 118.528c12.416 12.288 33.024 11.52 46.208-1.408s13.824-33.536 1.408-45.952L823.04 786.816l119.424-118.528c12.416-12.288 11.648-32.768-1.536-45.824z" fill="#707070" p-id="6397"></path></svg>