<?xml version="1.0" standalone="no"?><!DOCTYPE svg PUBLIC "-//W3C//DTD SVG 1.1//EN" "http://www.w3.org/Graphics/SVG/1.1/DTD/svg11.dtd"><svg t="1729478724168" class="icon" viewBox="0 0 1024 1024" version="1.1" xmlns="http://www.w3.org/2000/svg" p-id="4357" width="32" height="32" xmlns:xlink="http://www.w3.org/1999/xlink"><path d="M566.857143 449.828571h120.685714l-193.828571 365.714286h-62.171429l73.142857-256h-135.314285l109.714285-325.485714h153.6l-65.828571 215.771428z" fill="#2B63F2" p-id="4358"></path><path d="M969.142857 307.2zM969.142857 310.857143L837.485714 438.857143l10.971429 51.2 58.514286-32.914286c18.285714 138.971429-32.914286 274.285714-138.971429 362.057143-171.885714 142.628571-424.228571 117.028571-563.2-51.2l-10.971429-14.628571-73.142857 69.485714c142.628571 179.2 387.657143 237.714286 596.114286 142.628571 252.342857-109.714286 362.057143-405.942857 252.342857-654.628571zM175.542857 533.942857l-58.514286 32.914286C95.085714 431.542857 149.942857 292.571429 256 204.8 427.885714 62.171429 680.228571 87.771429 819.2 256l7.314286 10.971429 73.142857-69.485715C804.571429 80.457143 661.942857 10.971429 512 10.971429c-62.171429 0-124.342857 10.971429-182.857143 36.571428C69.485714 149.942857-54.857143 438.857143 47.542857 694.857143l7.314286 14.628571L182.857143 581.485714l-7.314286-47.542857z" fill="#1E2128" p-id="4359"></path></svg>