<?xml version="1.0" encoding="utf-8"?>
<svg version="1.1" xmlns:xlink="http://www.w3.org/1999/xlink" width="182px" height="32px" xmlns="http://www.w3.org/2000/svg">
  <defs>
    <pattern id="BGPattern" patternUnits="userSpaceOnUse" alignment="0 0" imageRepeat="None" />
    <mask fill="white" id="Clip188">
      <path d="M 0 28  L 0 4  C 0 1.759999999999991  1.759999999999991 0  4 0  L 178 0  C 180.24 0  182 1.759999999999991  182 4  L 182 28  C 182 30.24000000000001  180.24 32  178 32  L 131.8771929824553 32  L 30.125541125541076 32  L 4 32  C 1.759999999999991 32  0 30.24000000000001  0 28  Z " fill-rule="evenodd" />
    </mask>
  </defs>
  <g transform="matrix(1 0 0 1 -211 -66 )">
    <path d="M 0 28  L 0 4  C 0 1.759999999999991  1.759999999999991 0  4 0  L 178 0  C 180.24 0  182 1.759999999999991  182 4  L 182 28  C 182 30.24000000000001  180.24 32  178 32  L 131.8771929824553 32  L 30.125541125541076 32  L 4 32  C 1.759999999999991 32  0 30.24000000000001  0 28  Z " fill-rule="nonzero" fill="rgba(233, 233, 233, 0.4980392156862745)" stroke="none" transform="matrix(1 0 0 1 211 66 )" class="fill" />
    <path d="M 0 28  L 0 4  C 0 1.759999999999991  1.759999999999991 0  4 0  L 178 0  C 180.24 0  182 1.759999999999991  182 4  L 182 28  C 182 30.24000000000001  180.24 32  178 32  L 131.8771929824553 32  L 30.125541125541076 32  L 4 32  C 1.759999999999991 32  0 30.24000000000001  0 28  Z " stroke-width="0" stroke-dasharray="0" stroke="rgba(217, 217, 217, 1)" fill="none" transform="matrix(1 0 0 1 211 66 )" class="stroke" mask="url(#Clip188)" />
  </g>
</svg>