<?xml version="1.0" encoding="utf-8"?>
<svg version="1.1" xmlns:xlink="http://www.w3.org/1999/xlink" width="18px" height="20px" xmlns="http://www.w3.org/2000/svg">
  <defs>
    <pattern id="BGPattern" patternUnits="userSpaceOnUse" alignment="0 0" imageRepeat="None" />
    <mask fill="white" id="Clip189">
      <path d="M 1.9999999921875002 0.12345678240740732  L 11.455000007812501 0.12345678240740732  L 18 6.201481481481482  L 17.999999999999996 17.901234560185184  C 17.999999999999996 18.992167418243817  17.104569503159357 19.876543217592594  16.0000000078125 19.876543217592594  L 1.999999992187501 19.876543217592594  C 0.8954304968406375 19.876543217592594  0 18.992167418243817  0 17.901234583333334  L 0 2.0987654398148146  C 0 1.0078325817561853  0.8954304968406375 0.12345678240740732  1.9999999921875002 0.12345678240740732  Z M 17.182000007812498 6.960987662037036  L 10.636000007812502 0.883950625  L 10.636000007812502 4.986666666666666  C 10.636000007812502 6.077599501577147  11.53143050465314 6.961975300925926  12.636000000000001 6.961975300925926  L 17.1820000078125 6.961975300925926  Z M 14.668000007812498 8.72888888888889  L 13.516000007812497 8.72888888888889  L 11.6530000078125 13.98716048611111  L 9.089999999999998 8.729876550925924  L 8.779999992187498 8.729876550925924  L 6.190000007812498 13.977283958333333  L 4.366000007812498 8.729876550925926  L 3.2140000078125013 8.729876550925926  L 5.880000000000001 16.326913587962963  L 6.1900000078125 16.326913587962963  L 8.935000007812501 10.786172847222222  L 11.6269999921875 16.326913587962963  L 11.9500000078125 16.326913587962963  L 14.668000007812498 8.729876550925926  Z " fill-rule="evenodd" />
    </mask>
  </defs>
  <g transform="matrix(1 0 0 1 -537 -119 )">
    <path d="M 1.9999999921875002 0.12345678240740732  L 11.455000007812501 0.12345678240740732  L 18 6.201481481481482  L 17.999999999999996 17.901234560185184  C 17.999999999999996 18.992167418243817  17.104569503159357 19.876543217592594  16.0000000078125 19.876543217592594  L 1.999999992187501 19.876543217592594  C 0.8954304968406375 19.876543217592594  0 18.992167418243817  0 17.901234583333334  L 0 2.0987654398148146  C 0 1.0078325817561853  0.8954304968406375 0.12345678240740732  1.9999999921875002 0.12345678240740732  Z M 17.182000007812498 6.960987662037036  L 10.636000007812502 0.883950625  L 10.636000007812502 4.986666666666666  C 10.636000007812502 6.077599501577147  11.53143050465314 6.961975300925926  12.636000000000001 6.961975300925926  L 17.1820000078125 6.961975300925926  Z M 14.668000007812498 8.72888888888889  L 13.516000007812497 8.72888888888889  L 11.6530000078125 13.98716048611111  L 9.089999999999998 8.729876550925924  L 8.779999992187498 8.729876550925924  L 6.190000007812498 13.977283958333333  L 4.366000007812498 8.729876550925926  L 3.2140000078125013 8.729876550925926  L 5.880000000000001 16.326913587962963  L 6.1900000078125 16.326913587962963  L 8.935000007812501 10.786172847222222  L 11.6269999921875 16.326913587962963  L 11.9500000078125 16.326913587962963  L 14.668000007812498 8.729876550925926  Z " fill-rule="nonzero" fill="rgba(15, 144, 227, 1)" stroke="none" transform="matrix(1 0 0 1 537 119 )" class="fill" />
    <path d="M 1.9999999921875002 0.12345678240740732  L 11.455000007812501 0.12345678240740732  L 18 6.201481481481482  L 17.999999999999996 17.901234560185184  C 17.999999999999996 18.992167418243817  17.104569503159357 19.876543217592594  16.0000000078125 19.876543217592594  L 1.999999992187501 19.876543217592594  C 0.8954304968406375 19.876543217592594  0 18.992167418243817  0 17.901234583333334  L 0 2.0987654398148146  C 0 1.0078325817561853  0.8954304968406375 0.12345678240740732  1.9999999921875002 0.12345678240740732  Z " stroke-width="0" stroke-dasharray="0" stroke="rgba(255, 255, 255, 0)" fill="none" transform="matrix(1 0 0 1 537 119 )" class="stroke" mask="url(#Clip189)" />
    <path d="M 17.182000007812498 6.960987662037036  L 10.636000007812502 0.883950625  L 10.636000007812502 4.986666666666666  C 10.636000007812502 6.077599501577147  11.53143050465314 6.961975300925926  12.636000000000001 6.961975300925926  L 17.1820000078125 6.961975300925926  Z " stroke-width="0" stroke-dasharray="0" stroke="rgba(255, 255, 255, 0)" fill="none" transform="matrix(1 0 0 1 537 119 )" class="stroke" mask="url(#Clip189)" />
    <path d="M 14.668000007812498 8.72888888888889  L 13.516000007812497 8.72888888888889  L 11.6530000078125 13.98716048611111  L 9.089999999999998 8.729876550925924  L 8.779999992187498 8.729876550925924  L 6.190000007812498 13.977283958333333  L 4.366000007812498 8.729876550925926  L 3.2140000078125013 8.729876550925926  L 5.880000000000001 16.326913587962963  L 6.1900000078125 16.326913587962963  L 8.935000007812501 10.786172847222222  L 11.6269999921875 16.326913587962963  L 11.9500000078125 16.326913587962963  L 14.668000007812498 8.729876550925926  Z " stroke-width="0" stroke-dasharray="0" stroke="rgba(255, 255, 255, 0)" fill="none" transform="matrix(1 0 0 1 537 119 )" class="stroke" mask="url(#Clip189)" />
  </g>
</svg>