<svg width="640" height="40" viewBox="0 0 640 40" fill="none" xmlns="http://www.w3.org/2000/svg">
<path d="M280.923 27V16.52H277.371V15.272H285.963V16.52H282.411V27H280.923ZM288.628 27.208C287.172 27.208 286.1 26.312 286.1 24.744C286.1 22.856 287.732 21.912 291.428 21.496C291.428 20.376 291.06 19.304 289.636 19.304C288.628 19.304 287.716 19.768 287.028 20.232L286.468 19.224C287.252 18.712 288.468 18.088 289.876 18.088C292.004 18.088 292.884 19.496 292.884 21.656V27H291.684L291.556 25.96H291.508C290.676 26.648 289.7 27.208 288.628 27.208ZM289.044 26.024C289.876 26.024 290.58 25.64 291.428 24.888V22.472C288.5 22.808 287.508 23.528 287.508 24.648C287.508 25.64 288.18 26.024 289.044 26.024ZM299.468 27.208C298.668 27.208 297.756 26.792 297.004 26.104H296.94L296.812 27H295.644V14.264H297.116V17.752L297.052 19.304C297.852 18.632 298.812 18.088 299.788 18.088C302.028 18.088 303.244 19.832 303.244 22.52C303.244 25.496 301.452 27.208 299.468 27.208ZM299.228 25.976C300.668 25.976 301.724 24.68 301.724 22.536C301.724 20.6 301.084 19.32 299.42 19.32C298.7 19.32 297.932 19.736 297.116 20.504V25.08C297.868 25.752 298.652 25.976 299.228 25.976ZM307.807 27.208C306.575 27.208 305.391 26.696 304.575 26.008L305.279 25.032C306.047 25.656 306.815 26.072 307.855 26.072C309.007 26.072 309.567 25.464 309.567 24.712C309.567 23.832 308.543 23.416 307.583 23.064C306.367 22.616 305.055 22.04 305.055 20.552C305.055 19.176 306.143 18.088 308.047 18.088C309.119 18.088 310.079 18.536 310.735 19.08L310.031 19.992C309.439 19.56 308.831 19.224 308.062 19.224C306.959 19.224 306.447 19.8 306.447 20.488C306.447 21.304 307.343 21.624 308.319 21.992C309.583 22.472 310.959 22.984 310.959 24.632C310.959 26.04 309.855 27.208 307.807 27.208ZM322.581 14.776H329.557V15.912H322.581V14.776ZM327.589 21.8L328.613 21.48C329.397 23.048 330.165 25.08 330.437 26.344L329.333 26.744C329.093 25.48 328.341 23.4 327.589 21.8ZM322.981 21.528L324.085 21.768C323.589 23.624 322.789 25.496 321.925 26.712C321.701 26.552 321.221 26.216 320.949 26.088C321.845 24.936 322.565 23.224 322.981 21.528ZM321.877 18.6H330.421V19.736H326.517V26.728C326.517 27.416 326.373 27.784 325.909 27.992C325.445 28.184 324.709 28.216 323.589 28.216C323.541 27.864 323.365 27.352 323.205 26.984C324.037 27.016 324.789 27 324.997 27C325.237 26.984 325.301 26.92 325.301 26.712V19.736H321.877V18.6ZM318.357 13.56H319.557V16.952H321.653V18.072H319.557V18.504C320.021 19.032 321.397 20.792 321.717 21.24L321.013 22.184C320.741 21.672 320.101 20.68 319.557 19.896V28.264H318.357V20.248C317.765 21.976 316.981 23.656 316.181 24.68C316.053 24.36 315.733 23.864 315.509 23.56C316.533 22.36 317.573 20.056 318.101 18.072H315.909V16.952H318.357V13.56ZM337.909 22.52L338.869 22.168C339.461 23.192 340.101 24.552 340.341 25.384L339.317 25.8C339.093 24.952 338.485 23.56 337.909 22.52ZM333.941 22.968L334.901 22.536C335.605 23.496 336.389 24.776 336.709 25.592L335.701 26.088C335.381 25.272 334.629 23.96 333.941 22.968ZM342.341 20.552V21.576H335.829V20.552H342.341ZM340.309 13.48L341.445 13.752C341.285 14.168 341.109 14.568 340.901 14.968H346.149V15.96H343.045C343.509 16.568 343.957 17.288 344.165 17.8L343.029 18.088C342.805 17.528 342.293 16.648 341.765 15.96H340.293C340.053 16.312 339.797 16.648 339.541 16.936L340.133 17.24L339.797 17.624C341.317 18.968 344.181 20.312 346.549 20.904C346.293 21.128 345.957 21.576 345.781 21.896C343.493 21.208 340.821 19.784 339.141 18.248C338.181 19.112 337.045 19.896 335.829 20.552C334.725 21.16 333.557 21.656 332.405 22.04C332.245 21.736 331.957 21.336 331.685 21.08C334.389 20.28 337.333 18.776 338.981 16.952C338.757 16.792 338.485 16.632 338.309 16.536C339.173 15.784 339.893 14.648 340.309 13.48ZM334.085 13.48L335.221 13.768C335.077 14.168 334.917 14.568 334.757 14.968H338.757V15.96H336.181C336.533 16.584 336.853 17.272 336.981 17.752L335.909 18.072C335.749 17.512 335.381 16.664 334.981 15.96H334.277C333.797 16.872 333.253 17.688 332.709 18.328C332.485 18.136 331.989 17.832 331.717 17.672C332.709 16.648 333.589 15.064 334.085 13.48ZM343.269 22.248L344.357 22.568C343.701 23.96 342.869 25.544 342.101 26.792H346.069V27.864H332.133V26.792H340.725C341.653 25.544 342.597 23.8 343.269 22.248ZM354.549 19.608H355.781V22.52C355.781 24.712 354.885 26.936 348.661 28.28C348.517 28.024 348.181 27.56 347.925 27.304C353.861 26.12 354.549 24.216 354.549 22.504V19.608ZM355.845 25.24L356.549 24.424C358.373 25.224 360.789 26.488 362.037 27.368L361.285 28.328C360.117 27.432 357.701 26.104 355.845 25.24ZM349.861 17.48H353.573C353.829 16.904 354.117 16.184 354.309 15.56H348.309V14.44H362.085V15.56H355.685C355.397 16.232 355.077 16.92 354.773 17.48H360.549V24.92H359.285V18.6H351.093V24.952H349.861V17.48Z" fill="#999999"/>
</svg>
