<svg width="600" height="400" viewBox="0 0 600 400" fill="none" xmlns="http://www.w3.org/2000/svg">
<path d="M273.072 188.844C272.892 188.196 272.316 186.972 271.884 186.396C272.496 186.072 273.288 185.46 273.288 184.02V178.692C271.236 179.88 269.112 180.888 267.096 181.608C266.664 180.96 265.872 179.952 265.296 179.412C269.76 177.972 274.872 175.2 278.292 172.14H266.34V169.8H280.56V166.596H269.616V164.364H280.56V161.304H267.78V158.964H280.56V155.76H283.296V158.964H296.472V161.304H283.296V164.364H294.888V166.596H283.296V169.8H297.624V172.14H284.376C285.312 174.516 286.608 176.676 288.192 178.548C290.352 177.036 292.872 175.092 294.456 173.544L296.688 175.128C294.6 176.892 291.972 178.764 289.704 180.168C292.188 182.508 295.248 184.272 298.812 185.316C298.2 185.892 297.408 186.936 297.012 187.656C289.56 185.172 284.52 179.7 281.712 172.14C280.164 173.868 278.22 175.488 276.06 176.964V184.884L284.844 182.256C284.916 183.012 285.132 184.056 285.276 184.632C275.232 187.836 273.9 188.304 273.072 188.844ZM320.7 161.988L320.268 162.672C321.24 164.508 322.572 166.38 324.3 168.144C326.028 166.344 327.504 164.256 328.584 161.988H320.7ZM307.272 155.76H309.828V163.464H314.508V165.48C317.208 162.924 319.548 159.396 320.952 155.724L323.544 156.408C323.112 157.524 322.608 158.604 322.032 159.648H329.808L330.312 159.54L332.004 160.332C330.708 164.04 328.656 167.208 326.136 169.836C328.584 171.888 331.608 173.58 335.172 174.66C334.632 175.2 333.876 176.244 333.48 176.928L331.824 176.28V188.772H329.196V187.332H319.152V188.916H316.632V176.568C315.696 177 314.76 177.36 313.824 177.72C313.5 177.072 312.816 176.064 312.276 175.524C315.876 174.372 319.476 172.428 322.536 169.8C320.988 168.18 319.728 166.452 318.756 164.76C317.64 166.2 316.416 167.496 315.192 168.576C314.724 168.108 313.68 167.172 313.068 166.74L313.932 166.02H309.828V167.604C310.8 168.684 313.752 172.248 314.4 173.184L312.78 175.236C312.204 174.228 310.944 172.284 309.828 170.7V188.844H307.272V171.708C305.94 175.776 304.212 179.7 302.412 182.076C302.16 181.356 301.476 180.312 301.008 179.7C303.42 176.64 305.832 170.988 306.948 166.02H301.872V163.464H307.272V155.76ZM319.152 184.956H329.196V178.008H319.152V184.956ZM318.396 175.668H330.492C328.152 174.516 326.1 173.112 324.336 171.564C322.5 173.184 320.52 174.552 318.396 175.668Z" fill="#999999"/>
<path d="M257.276 220L260.776 209.752H262.05L265.564 220H264.332L263.31 216.78H259.474L258.438 220H257.276ZM259.782 215.856H263.016L262.484 214.19C262.092 213.028 261.77 211.922 261.42 210.718H261.364C261.028 211.922 260.692 213.028 260.314 214.19L259.782 215.856ZM265.783 220L268.289 216.052L265.979 212.44H267.225L268.275 214.162C268.513 214.582 268.779 214.988 269.045 215.422H269.101C269.339 214.988 269.563 214.582 269.801 214.162L270.781 212.44H271.971L269.661 216.164L272.167 220H270.921L269.759 218.166C269.507 217.704 269.213 217.242 268.919 216.808H268.849C268.583 217.242 268.331 217.704 268.065 218.166L266.987 220H265.783ZM273.698 220V208.856H274.846V211.95L274.804 213.532C275.518 212.818 276.302 212.244 277.338 212.244C278.92 212.244 279.648 213.266 279.648 215.198V220H278.5V215.338C278.5 213.882 278.052 213.238 277.002 213.238C276.204 213.238 275.63 213.658 274.846 214.456V220H273.698ZM284.318 220.182C282.736 220.182 282.008 219.174 282.008 217.242V212.44H283.156V217.102C283.156 218.558 283.604 219.188 284.654 219.188C285.452 219.188 286.026 218.782 286.782 217.858V212.44H287.916V220H286.978L286.88 218.796H286.838C286.124 219.622 285.368 220.182 284.318 220.182ZM293.79 220.182C293.09 220.182 292.278 219.818 291.62 219.216H291.564L291.452 220H290.542V208.856H291.69V211.95L291.634 213.336C292.348 212.734 293.202 212.244 294.07 212.244C296.044 212.244 297.08 213.77 297.08 216.094C297.08 218.684 295.526 220.182 293.79 220.182ZM293.622 219.216C294.938 219.216 295.904 218.026 295.904 216.122C295.904 214.386 295.316 213.21 293.804 213.21C293.146 213.21 292.446 213.588 291.69 214.288V218.39C292.376 219.006 293.104 219.216 293.622 219.216ZM304.512 220V210.732H301.39V209.752H308.824V210.732H305.688V220H304.512ZM312.457 220.182C310.609 220.182 308.985 218.726 308.985 216.234C308.985 213.7 310.609 212.244 312.457 212.244C314.305 212.244 315.929 213.7 315.929 216.234C315.929 218.726 314.305 220.182 312.457 220.182ZM312.457 219.23C313.829 219.23 314.767 218.026 314.767 216.234C314.767 214.428 313.829 213.21 312.457 213.21C311.099 213.21 310.161 214.428 310.161 216.234C310.161 218.026 311.099 219.23 312.457 219.23ZM320.879 220.182C319.031 220.182 317.407 218.726 317.407 216.234C317.407 213.7 319.031 212.244 320.879 212.244C322.727 212.244 324.351 213.7 324.351 216.234C324.351 218.726 322.727 220.182 320.879 220.182ZM320.879 219.23C322.251 219.23 323.189 218.026 323.189 216.234C323.189 214.428 322.251 213.21 320.879 213.21C319.521 213.21 318.583 214.428 318.583 216.234C318.583 218.026 319.521 219.23 320.879 219.23ZM326.376 223.304C326.04 223.304 325.746 223.248 325.522 223.15L325.746 222.226C325.9 222.282 326.124 222.352 326.334 222.352C327.202 222.352 327.762 221.61 328.098 220.63L328.266 220.042L325.214 212.44H326.404L328.014 216.766C328.252 217.424 328.504 218.194 328.77 218.894H328.84C329.05 218.208 329.274 217.438 329.484 216.766L330.898 212.44H332.018L329.134 220.714C328.63 222.142 327.846 223.304 326.376 223.304ZM335.458 220.182C334.38 220.182 333.358 219.734 332.658 219.146L333.218 218.376C333.876 218.908 334.548 219.286 335.5 219.286C336.55 219.286 337.068 218.726 337.068 218.026C337.068 217.214 336.144 216.85 335.304 216.542C334.24 216.136 333.064 215.646 333.064 214.358C333.064 213.182 334.002 212.244 335.64 212.244C336.536 212.244 337.362 212.622 337.936 213.084L337.376 213.826C336.872 213.448 336.34 213.154 335.64 213.154C334.632 213.154 334.17 213.686 334.17 214.302C334.17 215.058 334.954 215.338 335.822 215.66C336.942 216.094 338.16 216.528 338.16 217.97C338.16 219.174 337.208 220.182 335.458 220.182ZM182.088 234.028H182.984V236.87C182.984 238.62 182.564 240.72 178.994 242.022C178.868 241.84 178.63 241.518 178.42 241.35C181.766 240.244 182.088 238.326 182.088 236.87V234.028ZM182.802 239.712L183.432 239.138C184.328 239.81 185.476 240.79 186.05 241.406L185.392 242.064C184.846 241.42 183.712 240.426 182.802 239.712ZM173.926 232.418L174.458 231.83L175.732 232.684C176.306 232.18 176.908 231.466 177.37 230.794H173.506V229.954H177.986L178.154 229.912L178.742 230.29C178.126 231.312 177.216 232.39 176.376 233.132C176.894 233.482 177.37 233.832 177.692 234.098L177.426 234.434H178.434L178.588 234.392L179.176 234.56C178.798 235.638 178.35 236.842 177.958 237.598L177.23 237.402C177.51 236.856 177.804 236.058 178.07 235.288H176.46V240.958C176.46 241.49 176.348 241.756 175.97 241.91C175.592 242.05 174.99 242.064 174.024 242.064C173.982 241.812 173.842 241.434 173.716 241.168C174.458 241.182 175.102 241.182 175.298 241.182C175.508 241.168 175.564 241.112 175.564 240.944V235.288H173.212V234.434H176.712C175.942 233.832 174.822 233.02 173.926 232.418ZM179.68 232.236H181.794C181.934 231.788 182.088 231.242 182.2 230.752H179.162V229.898H186.05V230.752H183.222L182.704 232.236H185.49V238.858H184.58V233.09H180.548V238.872H179.68V232.236ZM195.626 232.194L196.424 231.83C197.208 232.502 198.034 233.44 198.426 234.084L197.586 234.504C197.222 233.832 196.382 232.88 195.626 232.194ZM188.304 230.038H189.214V233.972H188.304V230.038ZM191.216 229.394H192.14V234.42H191.216V229.394ZM194.072 238.424H195.01V240.692C195.01 241.028 195.122 241.084 195.794 241.084C196.116 241.084 197.754 241.084 198.174 241.084C198.734 241.084 198.846 240.902 198.888 239.6C199.098 239.74 199.476 239.88 199.728 239.936C199.616 241.518 199.336 241.896 198.258 241.896C197.978 241.896 196.004 241.896 195.724 241.896C194.408 241.896 194.072 241.658 194.072 240.692V238.424ZM193.106 236.38H194.086V237.486C194.086 238.956 193.512 240.86 188.192 242.134C188.08 241.91 187.814 241.574 187.604 241.378C192.756 240.258 193.106 238.62 193.106 237.472V236.38ZM189.452 234.868H198.062V239.25H197.096V235.722H190.39V239.32H189.452V234.868ZM194.898 229.254L195.794 229.436C195.682 229.87 195.542 230.304 195.402 230.724H199.714V231.578H195.08C194.702 232.488 194.268 233.3 193.792 233.93C193.624 233.79 193.232 233.552 192.994 233.44C193.848 232.404 194.506 230.822 194.898 229.254ZM204.414 237.542V236.646H207.956V237.542H204.414ZM225.653 235.638H222.909C222.573 236.394 222.237 237.108 221.915 237.724C222.657 238.102 223.455 238.522 224.239 238.956C224.953 238.102 225.415 237.024 225.653 235.638ZM220.669 238.032C221.061 237.388 221.495 236.534 221.901 235.638H219.787V234.784H222.265C222.587 234 222.867 233.216 223.063 232.502L224.015 232.656C223.819 233.328 223.553 234.056 223.259 234.784H228.215V235.638H226.661C226.353 237.22 225.835 238.438 225.051 239.404C226.255 240.118 227.375 240.818 228.117 241.406L227.445 242.134C226.731 241.546 225.625 240.818 224.407 240.076C223.385 241.014 222.041 241.644 220.305 242.106C220.221 241.896 219.997 241.49 219.829 241.294C221.425 240.93 222.671 240.398 223.595 239.6C222.615 239.04 221.593 238.48 220.669 238.032ZM220.165 231.088H223.679C223.553 230.556 223.343 229.912 223.147 229.394L224.071 229.198C224.309 229.786 224.561 230.528 224.701 231.088H228.019V233.748H227.109V231.928H221.061V233.776H220.165V231.088ZM217.323 229.268H218.247V232.11H219.787V232.992H218.247V236.296L219.941 235.778L220.081 236.618L218.247 237.22V240.972C218.247 241.518 218.107 241.784 217.757 241.924C217.421 242.078 216.861 242.106 215.937 242.092C215.923 241.868 215.783 241.49 215.657 241.238C216.301 241.252 216.889 241.252 217.071 241.252C217.253 241.252 217.323 241.182 217.323 240.986V237.514L215.475 238.102L215.251 237.192L217.323 236.576V232.992H215.405V232.11H217.323V229.268ZM236.475 229.52L237.329 229.212C237.819 229.926 238.365 230.878 238.575 231.494L237.679 231.872C237.469 231.242 236.965 230.262 236.475 229.52ZM232.877 229.31L233.773 229.59C233.367 230.626 232.877 231.648 232.317 232.614V242.064H231.379V234.084C230.903 234.756 230.399 235.372 229.895 235.89C229.811 235.666 229.517 235.176 229.335 234.952C230.749 233.594 232.079 231.466 232.877 229.31ZM233.171 240.706H237.301V237.024H234.011V236.128H237.301V232.922H233.535V232.026H242.047V232.922H238.239V236.128H241.627V237.024H238.239V240.706H242.257V241.602H233.171V240.706ZM245.99 241L249.49 230.752H250.764L254.278 241H253.046L252.024 237.78H248.188L247.152 241H245.99ZM248.496 236.856H251.73L251.198 235.19C250.806 234.028 250.484 232.922 250.134 231.718H250.078C249.742 232.922 249.406 234.028 249.028 235.19L248.496 236.856ZM256.904 241.182C256.036 241.182 255.658 240.622 255.658 239.614V229.856H256.806V239.698C256.806 240.076 256.96 240.23 257.156 240.23C257.212 240.23 257.268 240.23 257.422 240.202L257.59 241.084C257.408 241.14 257.226 241.182 256.904 241.182ZM261.878 241.182C260.296 241.182 259.792 240.202 259.792 238.718V234.364H258.644V233.51L259.834 233.44L259.974 231.298H260.926V233.44H263.012V234.364H260.926V238.76C260.926 239.684 261.206 240.244 262.116 240.244C262.396 240.244 262.746 240.146 262.998 240.034L263.236 240.902C262.802 241.042 262.298 241.182 261.878 241.182ZM276.211 229.898L276.757 229.324C277.639 229.702 278.703 230.318 279.235 230.794L278.661 231.466C278.143 230.976 277.093 230.318 276.211 229.898ZM267.447 240.132C268.973 239.852 271.353 239.362 273.635 238.872L273.705 239.768C271.549 240.244 269.253 240.748 267.643 241.098L267.447 240.132ZM269.239 234.588V237.178H272.235V234.588H269.239ZM268.357 233.762H273.159V237.99H268.357V233.762ZM267.531 231.536H274.405C274.363 230.808 274.349 230.052 274.335 229.296H275.329C275.329 230.066 275.343 230.808 275.385 231.536H279.627V232.46H275.427C275.567 234.406 275.833 236.156 276.197 237.556C277.009 236.38 277.653 235.036 278.115 233.524L279.053 233.748C278.437 235.638 277.583 237.29 276.533 238.676C277.065 240.216 277.737 241.126 278.493 241.126C278.913 241.126 279.081 240.398 279.165 238.508C279.375 238.718 279.725 238.942 279.991 239.026C279.823 241.392 279.445 242.106 278.423 242.106C277.317 242.106 276.449 241.14 275.805 239.544C274.909 240.552 273.873 241.392 272.697 242.078C272.557 241.896 272.193 241.518 271.983 241.35C273.327 240.636 274.489 239.684 275.455 238.536C274.951 236.884 274.629 234.77 274.461 232.46H267.531V231.536ZM288.834 241.182C286.286 241.182 284.494 239.11 284.494 235.834C284.494 232.572 286.286 230.57 288.834 230.57C291.368 230.57 293.16 232.572 293.16 235.834C293.16 239.11 291.368 241.182 288.834 241.182ZM288.834 240.16C290.724 240.16 291.97 238.466 291.97 235.834C291.97 233.216 290.724 231.592 288.834 231.592C286.93 231.592 285.684 233.216 285.684 235.834C285.684 238.466 286.93 240.16 288.834 240.16ZM295.306 244.234V233.44H296.244L296.356 234.322H296.398C297.098 233.762 297.938 233.244 298.834 233.244C300.808 233.244 301.844 234.77 301.844 237.108C301.844 239.684 300.29 241.182 298.554 241.182C297.854 241.182 297.126 240.86 296.426 240.3L296.454 241.63V244.234H295.306ZM298.386 240.216C299.702 240.216 300.668 239.026 300.668 237.122C300.668 235.386 300.08 234.21 298.568 234.21C297.91 234.21 297.224 234.588 296.454 235.288V239.39C297.168 240.006 297.868 240.216 298.386 240.216ZM305.983 241.182C304.401 241.182 303.897 240.202 303.897 238.718V234.364H302.749V233.51L303.939 233.44L304.079 231.298H305.031V233.44H307.117V234.364H305.031V238.76C305.031 239.684 305.311 240.244 306.221 240.244C306.501 240.244 306.851 240.146 307.103 240.034L307.341 240.902C306.907 241.042 306.403 241.182 305.983 241.182ZM308.855 241V233.44H310.003V241H308.855ZM309.443 231.816C308.967 231.816 308.659 231.508 308.659 231.018C308.659 230.556 308.967 230.248 309.443 230.248C309.891 230.248 310.227 230.556 310.227 231.018C310.227 231.508 309.891 231.816 309.443 231.816ZM315.513 241.182C313.665 241.182 312.041 239.726 312.041 237.234C312.041 234.7 313.665 233.244 315.513 233.244C317.361 233.244 318.985 234.7 318.985 237.234C318.985 239.726 317.361 241.182 315.513 241.182ZM315.513 240.23C316.885 240.23 317.823 239.026 317.823 237.234C317.823 235.428 316.885 234.21 315.513 234.21C314.155 234.21 313.217 235.428 313.217 237.234C313.217 239.026 314.155 240.23 315.513 240.23ZM321.037 241V233.44H321.975L322.087 234.546H322.129C322.857 233.818 323.641 233.244 324.677 233.244C326.259 233.244 326.987 234.266 326.987 236.198V241H325.839V236.338C325.839 234.882 325.391 234.238 324.341 234.238C323.543 234.238 322.969 234.658 322.185 235.456V241H321.037ZM334.338 234.84V236.45H337.796V234.84H334.338ZM338.762 234.84V236.45H342.388V234.84H338.762ZM334.338 232.502V234.084H337.796V232.502H334.338ZM338.762 232.502V234.084H342.388V232.502H338.762ZM341.31 229.324L342.318 229.66C341.884 230.332 341.38 231.088 340.918 231.69H343.34V237.262H338.762V238.662H344.586V239.544H338.762V242.078H337.796V239.544H332.084V238.662H337.796V237.262H333.414V231.69H336.074C335.752 231.13 335.192 230.29 334.66 229.702L335.458 229.324C336.032 229.954 336.69 230.822 336.97 231.41L336.424 231.69H339.882C340.386 231.004 340.974 230.024 341.31 229.324ZM347.428 236.772H348.408V240.356H351.852V235.652H346.266V234.714H351.852V232.404H347.316V231.48H351.852V229.268H352.832V231.48H357.424V232.404H352.832V234.714H358.404V235.652H352.832V240.356H356.248V236.772H357.186V242.106H356.248V241.28H347.428V236.772ZM361.372 230.374H371.312V231.27H361.372V230.374ZM360.168 234.322H372.488V235.232H368.484V240.37C368.484 240.86 368.596 240.944 369.156 240.944C369.422 240.944 370.724 240.944 371.074 240.944C371.676 240.944 371.76 240.58 371.816 238.396C372.04 238.578 372.432 238.746 372.698 238.816C372.586 241.196 372.334 241.84 371.144 241.84C370.864 241.84 369.324 241.84 369.058 241.84C367.854 241.84 367.532 241.518 367.532 240.384V235.232H364.788C364.536 238.27 363.864 240.776 360.616 242.064C360.518 241.84 360.238 241.504 360.028 241.336C363.024 240.202 363.57 237.92 363.794 235.232H360.168V234.322ZM377.752 236.282H381.812V233.076H379.502C379.208 233.916 378.858 234.658 378.466 235.26C378.284 235.134 377.892 234.896 377.668 234.798C378.48 233.608 379.068 231.802 379.39 229.954L380.3 230.136C380.16 230.822 379.992 231.508 379.81 232.152H381.812V229.436H382.75V232.152H386.012V233.076H382.75V236.282H386.614V237.206H382.75V242.092H381.812V237.206H377.752V236.282ZM377.122 229.31L378.018 229.59C377.626 230.626 377.15 231.676 376.604 232.656V242.064H375.708V234.112C375.274 234.77 374.812 235.358 374.336 235.876C374.252 235.652 373.972 235.176 373.79 234.952C375.12 233.58 376.366 231.452 377.122 229.31ZM391.076 237.542V236.646H394.618V237.542H391.076ZM398.936 240.286C399.972 239.936 401.498 239.348 403.024 238.774L403.192 239.544C401.778 240.118 400.308 240.692 399.174 241.154L398.936 240.286ZM399.202 235.064C399.16 234.868 399.02 234.42 398.908 234.182C399.146 234.126 399.37 233.79 399.664 233.3C399.958 232.824 400.91 230.976 401.428 229.268L402.338 229.59C401.736 231.144 400.952 232.768 400.154 234L401.806 233.818C402.1 233.3 402.394 232.754 402.632 232.208L403.416 232.642C402.59 234.224 401.596 235.848 400.574 237.15L403.024 236.632C403.01 236.884 403.052 237.22 403.08 237.402C399.972 238.13 399.552 238.256 399.3 238.424C399.258 238.228 399.118 237.808 399.006 237.57C399.286 237.528 399.594 237.15 400 236.632C400.224 236.338 400.756 235.596 401.316 234.672C399.72 234.882 399.398 234.966 399.202 235.064ZM407.07 236.044H405.824V238.214H407.07V236.044ZM407.728 236.044V238.214H408.806V236.044H407.728ZM405.068 235.26H410.584L411.34 235.246V241.154C411.34 241.518 411.284 241.728 411.046 241.854C410.794 241.98 410.472 241.994 409.968 241.994C409.94 241.784 409.842 241.476 409.744 241.28C410.066 241.294 410.346 241.294 410.444 241.294C410.542 241.28 410.584 241.252 410.584 241.14V238.97H409.464V241.616H408.806V238.97H407.728V241.63H407.07V238.97H405.824V241.98H405.068V235.26ZM409.464 236.044V238.214H410.584V236.044H409.464ZM406.86 229.436L407.728 229.184C408.036 229.674 408.344 230.332 408.484 230.794H411.214V233.986H405.04C405.026 236.254 404.802 239.558 403.514 241.854C403.36 241.686 402.982 241.42 402.786 241.322C404.046 239.068 404.172 235.974 404.172 233.832V230.794H407.49C407.336 230.36 407.084 229.856 406.86 229.436ZM405.04 231.592V233.202H410.332V231.592H405.04ZM420.006 230.444V231.956H423.898V230.444H420.006ZM419.138 229.716H424.808V232.684H419.138V229.716ZM413.496 236.31C413.454 236.114 413.314 235.694 413.216 235.456C413.44 235.4 413.622 234.938 413.86 234.322C414 233.972 414.322 233.006 414.616 231.844H413.034V230.948H414.826C414.952 230.402 415.05 229.828 415.134 229.268L416.058 229.464C415.96 229.954 415.862 230.458 415.736 230.948H418.116V231.844H415.498C415.162 233.076 414.77 234.252 414.364 235.246H415.806V233.076H416.674V235.246H418.032V236.114H416.674V238.046L418.284 237.738L418.34 238.564L416.674 238.914V242.036H415.806V239.082L413.146 239.628L412.936 238.704C413.706 238.578 414.714 238.41 415.806 238.2V236.114H414.504C414.028 236.114 413.622 236.198 413.496 236.31ZM423.856 234.35H420.146V235.624H423.856V234.35ZM417.948 239.992L419.264 239.908V234.35H418.298V233.538H425.69V234.35H424.724V239.516L425.774 239.446L425.76 240.244L424.724 240.328V242.092H423.856V240.398L418.102 240.846L417.948 239.992ZM423.856 236.352H420.146V237.654H423.856V236.352ZM423.856 238.382H420.146V239.852L423.856 239.586V238.382Z" fill="#999999"/>
</svg>
