<?xml version="1.0" encoding="utf-8"?>
<svg version="1.1" xmlns:xlink="http://www.w3.org/1999/xlink" width="990px" height="182px" xmlns="http://www.w3.org/2000/svg">
  <defs>
    <pattern id="BGPattern" patternUnits="userSpaceOnUse" alignment="0 0" imageRepeat="None" />
    <mask fill="white" id="Clip182">
      <path d="M 0 172  L 0 10  C 0 4.3999999999999995  4.4 0  10 0  L 980 0  C 985.6 0  990 4.3999999999999995  990 10  L 990 172  C 990 177.6  985.6 182  980 182  L 10 182  C 4.4 182  0 177.6  0 172  Z " fill-rule="evenodd" />
    </mask>
  </defs>
  <g transform="matrix(1 0 0 1 -646 -628 )">
    <path d="M 0 172  L 0 10  C 0 4.3999999999999995  4.4 0  10 0  L 980 0  C 985.6 0  990 4.3999999999999995  990 10  L 990 172  C 990 177.6  985.6 182  980 182  L 10 182  C 4.4 182  0 177.6  0 172  Z " fill-rule="nonzero" fill="rgba(230, 247, 255, 1)" stroke="none" transform="matrix(1 0 0 1 646 628 )" class="fill" />
    <path d="M 0 172  L 0 10  C 0 4.3999999999999995  4.4 0  10 0  L 980 0  C 985.6 0  990 4.3999999999999995  990 10  L 990 172  C 990 177.6  985.6 182  980 182  L 10 182  C 4.4 182  0 177.6  0 172  Z " stroke-width="2" stroke-dasharray="3,1" stroke="rgba(24, 144, 255, 1)" fill="none" transform="matrix(1 0 0 1 646 628 )" class="stroke" mask="url(#Clip182)" />
  </g>
</svg>