<?xml version="1.0" encoding="utf-8"?>
<svg version="1.1" xmlns:xlink="http://www.w3.org/1999/xlink" width="10px" height="10px" xmlns="http://www.w3.org/2000/svg">
  <defs>
    <pattern id="BGPattern" patternUnits="userSpaceOnUse" alignment="0 0" imageRepeat="None" />
    <mask fill="white" id="Clip118">
      <path d="M 0.07245923913043477 5  C 0.07245923913043477 2.278546195652174  2.278546195652174 0.07245923913043477  5 0.07245923913043477  C 7.721453804347825 0.07245923913043477  9.927540760869565 2.278546195652174  9.927540760869565 5  C 9.927540760869565 7.721453804347825  7.721453804347825 9.927540760869565  5 9.927540760869565  C 2.278546195652174 9.927540760869565  0.07245923913043477 7.721453804347825  0.07245923913043477 5  Z M 6.5370923913043475 2.847826086956522  L 5.00029891304348 4.38491847826087  L 3.4629076086956525 2.847826086956522  L 2.847826086956522 3.4629076086956525  L 4.385217391304348 4.999714673913044  L 2.847826086956522 6.5370923913043475  L 3.4629076086956525 7.152160326086957  L 5 5.614497282608696  L 6.5370923913043475 7.151888586956522  L 7.1521739130434785 6.536807065217392  L 5.614497282608696 5  L 7.151888586956522 3.4629076086956525  L 6.536807065217392 2.847826086956522  Z " fill-rule="evenodd" />
    </mask>
  </defs>
  <g transform="matrix(1 0 0 1 -138 -762 )">
    <path d="M 0.07245923913043477 5  C 0.07245923913043477 2.278546195652174  2.278546195652174 0.07245923913043477  5 0.07245923913043477  C 7.721453804347825 0.07245923913043477  9.927540760869565 2.278546195652174  9.927540760869565 5  C 9.927540760869565 7.721453804347825  7.721453804347825 9.927540760869565  5 9.927540760869565  C 2.278546195652174 9.927540760869565  0.07245923913043477 7.721453804347825  0.07245923913043477 5  Z M 6.5370923913043475 2.847826086956522  L 5.00029891304348 4.38491847826087  L 3.4629076086956525 2.847826086956522  L 2.847826086956522 3.4629076086956525  L 4.385217391304348 4.999714673913044  L 2.847826086956522 6.5370923913043475  L 3.4629076086956525 7.152160326086957  L 5 5.614497282608696  L 6.5370923913043475 7.151888586956522  L 7.1521739130434785 6.536807065217392  L 5.614497282608696 5  L 7.151888586956522 3.4629076086956525  L 6.536807065217392 2.847826086956522  Z " fill-rule="nonzero" fill="rgba(217, 0, 27, 1)" stroke="none" transform="matrix(1 0 0 1 138 762 )" class="fill" />
    <path d="M 0.07245923913043477 5  C 0.07245923913043477 2.278546195652174  2.278546195652174 0.07245923913043477  5 0.07245923913043477  C 7.721453804347825 0.07245923913043477  9.927540760869565 2.278546195652174  9.927540760869565 5  C 9.927540760869565 7.721453804347825  7.721453804347825 9.927540760869565  5 9.927540760869565  C 2.278546195652174 9.927540760869565  0.07245923913043477 7.721453804347825  0.07245923913043477 5  Z " stroke-width="0" stroke-dasharray="0" stroke="rgba(255, 255, 255, 0)" fill="none" transform="matrix(1 0 0 1 138 762 )" class="stroke" mask="url(#Clip118)" />
    <path d="M 6.5370923913043475 2.847826086956522  L 5.00029891304348 4.38491847826087  L 3.4629076086956525 2.847826086956522  L 2.847826086956522 3.4629076086956525  L 4.385217391304348 4.999714673913044  L 2.847826086956522 6.5370923913043475  L 3.4629076086956525 7.152160326086957  L 5 5.614497282608696  L 6.5370923913043475 7.151888586956522  L 7.1521739130434785 6.536807065217392  L 5.614497282608696 5  L 7.151888586956522 3.4629076086956525  L 6.536807065217392 2.847826086956522  Z " stroke-width="0" stroke-dasharray="0" stroke="rgba(255, 255, 255, 0)" fill="none" transform="matrix(1 0 0 1 138 762 )" class="stroke" mask="url(#Clip118)" />
  </g>
</svg>