<?xml version="1.0" encoding="utf-8"?>
<svg version="1.1" xmlns:xlink="http://www.w3.org/1999/xlink" width="12px" height="17px" xmlns="http://www.w3.org/2000/svg">
  <defs>
    <pattern id="BGPattern" patternUnits="userSpaceOnUse" alignment="0 0" imageRepeat="None" />
    <mask fill="white" id="Clip116">
      <path d="M 0.954211291015624 11.253766480193505  C 0.9570659127516024 14.035588699388821  3.211466296612823 16.289989072213743  5.993288517578126 16.29284368208747  C 8.775110730153262 16.28998906037405  11.02951110094103 14.035588691010826  11.032365722656248 11.253766480193505  L 11.032365722656248 5.039077212636153  C 11.032365722656248 2.256071714877346  8.776294006353309 0  5.993288506835938 0  C 3.2102830073185658 0  0.954211291015624 2.2560717148773444  0.954211291015624 5.039077212636153  L 0.954211291015624 11.253766480193505  Z " fill-rule="evenodd" />
    </mask>
  </defs>
  <g transform="matrix(1 0 0 1 -277 -800 )">
    <path d="M 0.954211291015624 11.253766480193505  C 0.9570659127516024 14.035588699388821  3.211466296612823 16.289989072213743  5.993288517578126 16.29284368208747  C 8.775110730153262 16.28998906037405  11.02951110094103 14.035588691010826  11.032365722656248 11.253766480193505  L 11.032365722656248 5.039077212636153  C 11.032365722656248 2.256071714877346  8.776294006353309 0  5.993288506835938 0  C 3.2102830073185658 0  0.954211291015624 2.2560717148773444  0.954211291015624 5.039077212636153  L 0.954211291015624 11.253766480193505  Z " fill-rule="nonzero" fill="rgba(47, 119, 241, 1)" stroke="none" transform="matrix(1 0 0 1 277 800 )" class="fill" />
    <path d="M 0.954211291015624 11.253766480193505  C 0.9570659127516024 14.035588699388821  3.211466296612823 16.289989072213743  5.993288517578126 16.29284368208747  C 8.775110730153262 16.28998906037405  11.02951110094103 14.035588691010826  11.032365722656248 11.253766480193505  L 11.032365722656248 5.039077212636153  C 11.032365722656248 2.256071714877346  8.776294006353309 0  5.993288506835938 0  C 3.2102830073185658 0  0.954211291015624 2.2560717148773444  0.954211291015624 5.039077212636153  L 0.954211291015624 11.253766480193505  Z " stroke-width="0" stroke-dasharray="0" stroke="rgba(255, 255, 255, 0)" fill="none" transform="matrix(1 0 0 1 277 800 )" class="stroke" mask="url(#Clip116)" />
  </g>
</svg>