<?xml version="1.0" encoding="utf-8"?>
<svg version="1.1" xmlns:xlink="http://www.w3.org/1999/xlink" width="18px" height="16px" xmlns="http://www.w3.org/2000/svg">
  <defs>
    <pattern id="BGPattern" patternUnits="userSpaceOnUse" alignment="0 0" imageRepeat="None" />
    <mask fill="white" id="Clip117">
      <path d="M 9.891828996093746 12.830508460135768  C 11.737586067804447 12.620810359862078  13.455294671054483 11.783438845504426  14.757412804687497 10.45856872930638  C 16.28059229129833 8.917256158117041  17.135511613970607 6.838099807566988  17.137120900390624 4.671139356238858  L 17.137120900390624 1.1132297492525918  C 17.13712091113281 0.6168405934021685  16.734830626388145 0.21455030892759674  16.238580411132812 0.21455030892759674  C 15.742330195877475 0.21455030892759674  15.340039911132813 0.6168405934021685  15.340039911132813 1.1130908083243278  L 15.340039921875 4.67113935623886  C 15.360124392751928 8.19724833075097  12.519380902789836 11.072762248586821  8.993288517578124 11.095574389034953  C 5.467796326763768 11.07133898339597  2.6278830940950986 8.196665494854235  2.6465370917968754 4.67113935623886  L 2.6465370917968754 1.1132297492525918  C 2.6464603652324765 0.6170337992005533  2.244192558856337 0.21482819078154441  1.7479966025390623 0.21482819078154441  C 1.2518006462217866 0.21482819078154441  0.8495328398456481 0.6170337992005542  0.8494561132812501 1.1132297492525918  L 0.8494561132812506 4.67113935623886  C 0.8479121942626766 5.762353395709954  1.0654058830087392 6.8427775047811545  1.489051220703125 7.84839924863694  C 1.8973546342359802 8.822073917799173  2.4889858767029605 9.708202130143892  3.2317536777343747 10.458568729306377  C 4.533916878774804 11.784836919570717  6.252953367365361 12.622410015623888  8.09992693359375 12.830508460135768  L 8.09992693359375 14.202919011948726  L 4.334861005859375 14.202919011948726  C 3.8386650554752055 14.202995738514497  3.4364594467877323 14.605263544620138  3.4364594467877323 15.10145950060327  C 3.4364594467877323 15.597655456586397  3.8386650554752055 15.999923262692041  4.334861005859375 15.999999989257812  L 13.656894923828125 15.999999989257812  C 14.153284080011819 16  14.555574364756485 15.59770971552543  14.555574364756485 15.10145950060327  C 14.555574364756485 14.605209285681108  14.153284080011819 14.202919001206535  13.657033864756485 14.202919001206535  L 9.89182899609375 14.202919011948726  L 9.891828996093746 12.830508460135768  Z " fill-rule="evenodd" />
    </mask>
  </defs>
  <g transform="matrix(1 0 0 1 -274 -806 )">
    <path d="M 9.891828996093746 12.830508460135768  C 11.737586067804447 12.620810359862078  13.455294671054483 11.783438845504426  14.757412804687497 10.45856872930638  C 16.28059229129833 8.917256158117041  17.135511613970607 6.838099807566988  17.137120900390624 4.671139356238858  L 17.137120900390624 1.1132297492525918  C 17.13712091113281 0.6168405934021685  16.734830626388145 0.21455030892759674  16.238580411132812 0.21455030892759674  C 15.742330195877475 0.21455030892759674  15.340039911132813 0.6168405934021685  15.340039911132813 1.1130908083243278  L 15.340039921875 4.67113935623886  C 15.360124392751928 8.19724833075097  12.519380902789836 11.072762248586821  8.993288517578124 11.095574389034953  C 5.467796326763768 11.07133898339597  2.6278830940950986 8.196665494854235  2.6465370917968754 4.67113935623886  L 2.6465370917968754 1.1132297492525918  C 2.6464603652324765 0.6170337992005533  2.244192558856337 0.21482819078154441  1.7479966025390623 0.21482819078154441  C 1.2518006462217866 0.21482819078154441  0.8495328398456481 0.6170337992005542  0.8494561132812501 1.1132297492525918  L 0.8494561132812506 4.67113935623886  C 0.8479121942626766 5.762353395709954  1.0654058830087392 6.8427775047811545  1.489051220703125 7.84839924863694  C 1.8973546342359802 8.822073917799173  2.4889858767029605 9.708202130143892  3.2317536777343747 10.458568729306377  C 4.533916878774804 11.784836919570717  6.252953367365361 12.622410015623888  8.09992693359375 12.830508460135768  L 8.09992693359375 14.202919011948726  L 4.334861005859375 14.202919011948726  C 3.8386650554752055 14.202995738514497  3.4364594467877323 14.605263544620138  3.4364594467877323 15.10145950060327  C 3.4364594467877323 15.597655456586397  3.8386650554752055 15.999923262692041  4.334861005859375 15.999999989257812  L 13.656894923828125 15.999999989257812  C 14.153284080011819 16  14.555574364756485 15.59770971552543  14.555574364756485 15.10145950060327  C 14.555574364756485 14.605209285681108  14.153284080011819 14.202919001206535  13.657033864756485 14.202919001206535  L 9.89182899609375 14.202919011948726  L 9.891828996093746 12.830508460135768  Z " fill-rule="nonzero" fill="rgba(47, 119, 241, 1)" stroke="none" transform="matrix(1 0 0 1 274 806 )" class="fill" />
    <path d="M 9.891828996093746 12.830508460135768  C 11.737586067804447 12.620810359862078  13.455294671054483 11.783438845504426  14.757412804687497 10.45856872930638  C 16.28059229129833 8.917256158117041  17.135511613970607 6.838099807566988  17.137120900390624 4.671139356238858  L 17.137120900390624 1.1132297492525918  C 17.13712091113281 0.6168405934021685  16.734830626388145 0.21455030892759674  16.238580411132812 0.21455030892759674  C 15.742330195877475 0.21455030892759674  15.340039911132813 0.6168405934021685  15.340039911132813 1.1130908083243278  L 15.340039921875 4.67113935623886  C 15.360124392751928 8.19724833075097  12.519380902789836 11.072762248586821  8.993288517578124 11.095574389034953  C 5.467796326763768 11.07133898339597  2.6278830940950986 8.196665494854235  2.6465370917968754 4.67113935623886  L 2.6465370917968754 1.1132297492525918  C 2.6464603652324765 0.6170337992005533  2.244192558856337 0.21482819078154441  1.7479966025390623 0.21482819078154441  C 1.2518006462217866 0.21482819078154441  0.8495328398456481 0.6170337992005542  0.8494561132812501 1.1132297492525918  L 0.8494561132812506 4.67113935623886  C 0.8479121942626766 5.762353395709954  1.0654058830087392 6.8427775047811545  1.489051220703125 7.84839924863694  C 1.8973546342359802 8.822073917799173  2.4889858767029605 9.708202130143892  3.2317536777343747 10.458568729306377  C 4.533916878774804 11.784836919570717  6.252953367365361 12.622410015623888  8.09992693359375 12.830508460135768  L 8.09992693359375 14.202919011948726  L 4.334861005859375 14.202919011948726  C 3.8386650554752055 14.202995738514497  3.4364594467877323 14.605263544620138  3.4364594467877323 15.10145950060327  C 3.4364594467877323 15.597655456586397  3.8386650554752055 15.999923262692041  4.334861005859375 15.999999989257812  L 13.656894923828125 15.999999989257812  C 14.153284080011819 16  14.555574364756485 15.59770971552543  14.555574364756485 15.10145950060327  C 14.555574364756485 14.605209285681108  14.153284080011819 14.202919001206535  13.657033864756485 14.202919001206535  L 9.89182899609375 14.202919011948726  L 9.891828996093746 12.830508460135768  Z " stroke-width="0" stroke-dasharray="0" stroke="rgba(255, 255, 255, 0)" fill="none" transform="matrix(1 0 0 1 274 806 )" class="stroke" mask="url(#Clip117)" />
  </g>
</svg>