<?xml version="1.0" encoding="utf-8"?>
<svg version="1.1" xmlns:xlink="http://www.w3.org/1999/xlink" width="20px" height="26px" xmlns="http://www.w3.org/2000/svg">
  <defs>
    <pattern id="BGPattern" patternUnits="userSpaceOnUse" alignment="0 0" imageRepeat="None" />
    <mask fill="white" id="Clip119">
      <path d="M 14.468971151914065 24.770450364804685  C 20.959013784358834 18.215604125235785  20.951321657058735 7.654300928514248  14.451737716289063 1.1089154400781247  C 14.21468598628082 0.8635555083015254  13.888148420263022 0.7249933845263923  13.546981278203127 0.7249933845263923  C 13.205814136143228 0.7249933845263923  12.879276570125434 0.863555508301526  12.64222484011719 1.1089154400781247  C 12.186993780089374 1.5931751641095162  12.186993780089374 2.3480013172967342  12.642224840117187 2.832261041328125  C 18.188184256042742 8.389054283595472  18.188184256042742 17.386910810467025  12.64222484011719 22.943704052734372  C 12.138226614135888 23.448329880972782  12.138226614135892 24.265824536566278  12.64222484011719 24.770450364804688  C 13.146850668324191 25.274448590603917  13.964345323707064 25.274448590603917  14.468971151914065 24.770450364804685  Z M 8.781930722148434 20.634420961015625  C 12.831192813923476 16.456921863235706  12.831192813923476 9.818813446647107  8.781930722148438 5.641314348593751  C 8.291293103763627 5.202474732770425  7.549222763619188 5.202474732770425  7.058585145234375 5.641314348593749  C 6.611726854813574 6.128861122897296  6.611726854813574 6.877113151204265  7.058585145234378 7.364659925507812  C 10.235304705852503 10.557966364452314  10.235304705852503 15.717768921094564  7.058585145234376 18.911075360039064  C 6.619745515062947 19.40171298213445  6.619745515062949 20.143783338920244  7.058585145234375 20.63442096101562  C 7.546131919537922 21.081279251436428  8.294383947844889 21.08127925143642  8.781930722148434 20.634420961015625  Z M 2.7291101133122577 10.880284930664065  C 2.1545122461690847 10.880284930664065  1.603727041040206 11.10984340173385  1.1992101407421876 11.517922788984375  C 0.7950833214273123 11.919116563941355  0.5677990464822589 12.46501547759546  0.5677990464822589 13.034466907617187  C 0.5677990464822589 13.603918337638916  0.7950833214273123 14.14981725129302  1.1992101407421876 14.55101102625  C 1.603727041040207 14.95909041350053  2.1545122461690847 15.188648884570313  2.7291101133122577 15.188648884570313  C 3.91883196754382 15.188648884570313  4.883292090265382 14.224188761848751  4.883292090265382 13.03446690761719  C 4.883292090265382 11.84474505338563  3.9188319675438184 10.880284930664065  2.7291101133122577 10.880284930664065  Z " fill-rule="evenodd" />
    </mask>
  </defs>
  <g transform="matrix(1 0 0 1 -9 -795 )">
    <path d="M 14.468971151914065 24.770450364804685  C 20.959013784358834 18.215604125235785  20.951321657058735 7.654300928514248  14.451737716289063 1.1089154400781247  C 14.21468598628082 0.8635555083015254  13.888148420263022 0.7249933845263923  13.546981278203127 0.7249933845263923  C 13.205814136143228 0.7249933845263923  12.879276570125434 0.863555508301526  12.64222484011719 1.1089154400781247  C 12.186993780089374 1.5931751641095162  12.186993780089374 2.3480013172967342  12.642224840117187 2.832261041328125  C 18.188184256042742 8.389054283595472  18.188184256042742 17.386910810467025  12.64222484011719 22.943704052734372  C 12.138226614135888 23.448329880972782  12.138226614135892 24.265824536566278  12.64222484011719 24.770450364804688  C 13.146850668324191 25.274448590603917  13.964345323707064 25.274448590603917  14.468971151914065 24.770450364804685  Z M 8.781930722148434 20.634420961015625  C 12.831192813923476 16.456921863235706  12.831192813923476 9.818813446647107  8.781930722148438 5.641314348593751  C 8.291293103763627 5.202474732770425  7.549222763619188 5.202474732770425  7.058585145234375 5.641314348593749  C 6.611726854813574 6.128861122897296  6.611726854813574 6.877113151204265  7.058585145234378 7.364659925507812  C 10.235304705852503 10.557966364452314  10.235304705852503 15.717768921094564  7.058585145234376 18.911075360039064  C 6.619745515062947 19.40171298213445  6.619745515062949 20.143783338920244  7.058585145234375 20.63442096101562  C 7.546131919537922 21.081279251436428  8.294383947844889 21.08127925143642  8.781930722148434 20.634420961015625  Z M 2.7291101133122577 10.880284930664065  C 2.1545122461690847 10.880284930664065  1.603727041040206 11.10984340173385  1.1992101407421876 11.517922788984375  C 0.7950833214273123 11.919116563941355  0.5677990464822589 12.46501547759546  0.5677990464822589 13.034466907617187  C 0.5677990464822589 13.603918337638916  0.7950833214273123 14.14981725129302  1.1992101407421876 14.55101102625  C 1.603727041040207 14.95909041350053  2.1545122461690847 15.188648884570313  2.7291101133122577 15.188648884570313  C 3.91883196754382 15.188648884570313  4.883292090265382 14.224188761848751  4.883292090265382 13.03446690761719  C 4.883292090265382 11.84474505338563  3.9188319675438184 10.880284930664065  2.7291101133122577 10.880284930664065  Z " fill-rule="nonzero" fill="rgba(47, 119, 241, 1)" stroke="none" transform="matrix(1 0 0 1 9 795 )" class="fill" />
    <path d="M 14.468971151914065 24.770450364804685  C 20.959013784358834 18.215604125235785  20.951321657058735 7.654300928514248  14.451737716289063 1.1089154400781247  C 14.21468598628082 0.8635555083015254  13.888148420263022 0.7249933845263923  13.546981278203127 0.7249933845263923  C 13.205814136143228 0.7249933845263923  12.879276570125434 0.863555508301526  12.64222484011719 1.1089154400781247  C 12.186993780089374 1.5931751641095162  12.186993780089374 2.3480013172967342  12.642224840117187 2.832261041328125  C 18.188184256042742 8.389054283595472  18.188184256042742 17.386910810467025  12.64222484011719 22.943704052734372  C 12.138226614135888 23.448329880972782  12.138226614135892 24.265824536566278  12.64222484011719 24.770450364804688  C 13.146850668324191 25.274448590603917  13.964345323707064 25.274448590603917  14.468971151914065 24.770450364804685  Z " stroke-width="0" stroke-dasharray="0" stroke="rgba(255, 255, 255, 0)" fill="none" transform="matrix(1 0 0 1 9 795 )" class="stroke" mask="url(#Clip119)" />
    <path d="M 8.781930722148434 20.634420961015625  C 12.831192813923476 16.456921863235706  12.831192813923476 9.818813446647107  8.781930722148438 5.641314348593751  C 8.291293103763627 5.202474732770425  7.549222763619188 5.202474732770425  7.058585145234375 5.641314348593749  C 6.611726854813574 6.128861122897296  6.611726854813574 6.877113151204265  7.058585145234378 7.364659925507812  C 10.235304705852503 10.557966364452314  10.235304705852503 15.717768921094564  7.058585145234376 18.911075360039064  C 6.619745515062947 19.40171298213445  6.619745515062949 20.143783338920244  7.058585145234375 20.63442096101562  C 7.546131919537922 21.081279251436428  8.294383947844889 21.08127925143642  8.781930722148434 20.634420961015625  Z " stroke-width="0" stroke-dasharray="0" stroke="rgba(255, 255, 255, 0)" fill="none" transform="matrix(1 0 0 1 9 795 )" class="stroke" mask="url(#Clip119)" />
    <path d="M 2.7291101133122577 10.880284930664065  C 2.1545122461690847 10.880284930664065  1.603727041040206 11.10984340173385  1.1992101407421876 11.517922788984375  C 0.7950833214273123 11.919116563941355  0.5677990464822589 12.46501547759546  0.5677990464822589 13.034466907617187  C 0.5677990464822589 13.603918337638916  0.7950833214273123 14.14981725129302  1.1992101407421876 14.55101102625  C 1.603727041040207 14.95909041350053  2.1545122461690847 15.188648884570313  2.7291101133122577 15.188648884570313  C 3.91883196754382 15.188648884570313  4.883292090265382 14.224188761848751  4.883292090265382 13.03446690761719  C 4.883292090265382 11.84474505338563  3.9188319675438184 10.880284930664065  2.7291101133122577 10.880284930664065  Z " stroke-width="0" stroke-dasharray="0" stroke="rgba(255, 255, 255, 0)" fill="none" transform="matrix(1 0 0 1 9 795 )" class="stroke" mask="url(#Clip119)" />
  </g>
</svg>