<?xml version="1.0" encoding="utf-8"?>
<svg version="1.1" xmlns:xlink="http://www.w3.org/1999/xlink" width="353px" height="32px" xmlns="http://www.w3.org/2000/svg">
  <defs>
    <pattern id="BGPattern" patternUnits="userSpaceOnUse" alignment="0 0" imageRepeat="None" />
    <mask fill="white" id="Clip157">
      <path d="M 0 28  L 0 4  C 0 1.759999999999991  3.413626373626356 0  7.758241758241759 0  L 345.24175824175825 0  C 349.58637362637364 0  353 1.759999999999991  353 4  L 353 28  C 353 30.24000000000001  349.58637362637364 32  345.24175824175825 32  L 255.78378638904795 32  L 7.758241758241759 32  C 3.413626373626356 32  0 30.24000000000001  0 28  Z " fill-rule="evenodd" />
    </mask>
  </defs>
  <g transform="matrix(1 0 0 1 -4 0 )">
    <path d="M 0 28  L 0 4  C 0 1.759999999999991  3.413626373626356 0  7.758241758241759 0  L 345.24175824175825 0  C 349.58637362637364 0  353 1.759999999999991  353 4  L 353 28  C 353 30.24000000000001  349.58637362637364 32  345.24175824175825 32  L 255.78378638904795 32  L 7.758241758241759 32  C 3.413626373626356 32  0 30.24000000000001  0 28  Z " fill-rule="nonzero" fill="rgba(233, 233, 233, 0.4980392156862745)" stroke="none" transform="matrix(1 0 0 1 4 0 )" class="fill" />
    <path d="M 0 28  L 0 4  C 0 1.759999999999991  3.413626373626356 0  7.758241758241759 0  L 345.24175824175825 0  C 349.58637362637364 0  353 1.759999999999991  353 4  L 353 28  C 353 30.24000000000001  349.58637362637364 32  345.24175824175825 32  L 255.78378638904795 32  L 7.758241758241759 32  C 3.413626373626356 32  0 30.24000000000001  0 28  Z " stroke-width="2" stroke-dasharray="0" stroke="rgba(217, 217, 217, 1)" fill="none" transform="matrix(1 0 0 1 4 0 )" class="stroke" mask="url(#Clip157)" />
  </g>
</svg>