<?xml version="1.0" encoding="utf-8"?>
<svg version="1.1" xmlns:xlink="http://www.w3.org/1999/xlink" width="221px" height="40px" xmlns="http://www.w3.org/2000/svg">
  <defs>
    <radialGradient cx="204.77829931972775" cy="21.69047619047617" r="106.90874999999997" gradientTransform="matrix(0 0.3217697335344396 -1 0 226.46877551020393 -44.200982615268344 )" gradientUnits="userSpaceOnUse" id="RadialGradient150">
      <stop id="Stop151" stop-color="#d7d7d7" offset="0" />
      <stop id="Stop152" stop-color="#aaaaaa" stop-opacity="0.7215686274509804" offset="1" />
    </radialGradient>
    <pattern id="BGPattern" patternUnits="userSpaceOnUse" alignment="0 0" imageRepeat="None" />
    <mask fill="white" id="Clip153">
      <path d="M 20 40  C 8.799999999999999 40  0 31.200000000000003  0 20  C 0 8.799999999999999  8.799999999999999 0  20 0  L 201 0  C 212.20000000000002 0  221 8.799999999999999  221 20  C 221 31.200000000000003  212.20000000000002 40  201 40  L 20 40  Z " fill-rule="evenodd" />
    </mask>
  </defs>
  <g transform="matrix(1 0 0 1 -211 -97 )">
    <path d="M 20 40  C 8.799999999999999 40  0 31.200000000000003  0 20  C 0 8.799999999999999  8.799999999999999 0  20 0  L 201 0  C 212.20000000000002 0  221 8.799999999999999  221 20  C 221 31.200000000000003  212.20000000000002 40  201 40  L 20 40  Z " fill-rule="nonzero" fill="url(#RadialGradient150)" stroke="none" transform="matrix(1 0 0 1 211 97 )" class="fill" />
    <path d="M 20 40  C 8.799999999999999 40  0 31.200000000000003  0 20  C 0 8.799999999999999  8.799999999999999 0  20 0  L 201 0  C 212.20000000000002 0  221 8.799999999999999  221 20  C 221 31.200000000000003  212.20000000000002 40  201 40  L 20 40  Z " stroke-width="0" stroke-dasharray="0" stroke="rgba(121, 121, 121, 1)" fill="none" transform="matrix(1 0 0 1 211 97 )" class="stroke" mask="url(#Clip153)" />
  </g>
</svg>